<svg id="Layer_1" data-name="Layer 1" xmlns="http://www.w3.org/2000/svg" width="161.9" height="427.64" viewBox="0 0 161.9 427.64">
  <defs>
    <style>
      .cls-1 {
        fill: #c33437;
      }

      .cls-2 {
        fill: #4d4d4d;
      }

      .cls-3 {
        fill: #ffc6b4;
      }

      .cls-4 {
        fill: #be7d5d;
      }

      .cls-5 {
        fill: #231f20;
      }

      .cls-6 {
        fill: #ffefb2;
      }

      .cls-7 {
        fill: #373f46;
      }

      .cls-8 {
        fill: #f7e0b3;
      }

      .cls-9 {
        fill: #6b317d;
      }

      .cls-10 {
        fill: #f4b844;
      }

      .cls-11 {
        fill: #f38486;
      }

      .cls-12 {
        fill: #452d65;
      }

      .cls-13 {
        fill: #785ba2;
      }

      .cls-14 {
        fill: #f7961d;
      }

      .cls-15 {
        fill: #fce83a;
      }

      .cls-16 {
        fill: #aeddda;
      }

      .cls-17 {
        fill: #248cbf;
      }

      .cls-18 {
        fill: #f58961;
      }

      .cls-19 {
        fill: #009486;
      }
    </style>
  </defs>
  <title>digital-me-aj</title>
  <g>
    <g>
      <path class="cls-1" d="M164.54,106.24c-1.54-6.9-7.3-12.78-12.32-17.42a73.89,73.89,0,0,0-17.7-12.11c-5.42-2.64-13.69-7-19.9-5.31-3.09.85-4.62,3.75-6.93,5.76a29.14,29.14,0,0,1-12.88,6.36,1.86,1.86,0,0,0-1.35,1.19C85,83.9,76.54,81.22,74.09,72.23a2.13,2.13,0,0,0-2.61-1.48A179.37,179.37,0,0,0,44.83,83.93a2.3,2.3,0,0,0-.54.12,19.49,19.49,0,0,0-8.92,6,1.88,1.88,0,0,0-.12.18,62.16,62.16,0,0,0-10.64,9.79c-4.84,5.81-8.39,12.59-11.61,19.39-1.08,2.28-2.63,4.91-1.65,7.53a4.58,4.58,0,0,0,.55,1,2.21,2.21,0,0,0-.41.6,2.14,2.14,0,0,0,.91,3.53l6.41,2a2.82,2.82,0,0,0,.43.41A9.29,9.29,0,0,0,21.91,136c.45.25.91.48,1.35.73q8.18,5.58,16.78,10.48a1.93,1.93,0,0,0,2.74-.64c-.28,1.66-.54,3.32-.79,5-1,6.52-1.77,13.07-2.53,19.63-.71,6.05-1.3,12.16.2,18.15A33.89,33.89,0,0,0,57,210.85c2.28,1.15,4.83,1.74,6.95,3.19a34.69,34.69,0,0,1,4.77,4.54c2.27,2.28,4.48,4.13,7.33,5.07a18,18,0,0,1-8.43-1.53A2.16,2.16,0,0,0,64.42,224c-.65,10.78,12.65,8.39,19.14,7.09,10.34-2.08,20.59-4.72,29.68-10.15a14.11,14.11,0,0,0,2-1.27,2.19,2.19,0,0,0,.86-1.38c1-.41,2.07-.8,3.13-1.16,2.18-.73,1.94-4.26-.57-4.17l-1.44-.28,6.09-6a2,2,0,0,0,.5-2.07c.43-.31.88-.6,1.34-.88,3.37-2,7.18-2.48,10.75-3.95,6.08-2.5,8.64-8.47,10.31-14.44a51.68,51.68,0,0,0,1.29-21.57,49.36,49.36,0,0,0-2.85-10.76c-1.59-4.09-5.4-9.37-4.26-13.91,1-3.89,5.94-7.35,8.75-10,1.18-1.1,2.37-2.17,3.58-3.23l1.29-.62a3.72,3.72,0,0,0,2-2.25l3.41-2.88C163.73,116.47,165.8,111.89,164.54,106.24Zm-61.1,14.52h0l0,0ZM112.83,215l0,0-.1,0ZM17.29,119.93a19,19,0,0,0-.23,3,10,10,0,0,0,1.85,5.8,10.54,10.54,0,0,1-1.26-1.23C15.46,124.81,16.07,122.36,17.29,119.93ZM42.7,144a5.41,5.41,0,0,0,.61-.46c-.08.42-.15.84-.23,1.26A2,2,0,0,0,42.7,144Z" transform="translate(-9.05 -11.18)"/>
      <path class="cls-1" d="M44.43,225.46c-.42-.36-.52-.34-.49-.89a2,2,0,0,0-2.41-2,2.1,2.1,0,0,0-1.69-1.34,2.17,2.17,0,0,0-2.33,1.52l-.28.7a1.81,1.81,0,0,0,.21,1.61c0,1,0,2,.08,3.05.17,2.07,1.86,2.86,3.74,2.49,1.53-.29,3.61-.85,4.05-2.56A2.45,2.45,0,0,0,44.43,225.46Z" transform="translate(-9.05 -11.18)"/>
    </g>
    <path class="cls-2" d="M120.21,144.9a6.65,6.65,0,0,0-5.49-5.28c-3-.64-4.93-.91-7-3.67-1-1.25-1.38-2.43-2.74-3.39-2.61-1.83-6.41-1.62-9.35-.79-3.74,1.06-7.14,9.61-11.19,7.12a2.15,2.15,0,0,0-2.58.33A13.44,13.44,0,0,0,78.49,149v0c-.12,2.24-.1,4.42-.27,6-.53,4.64-2,10.18,2.54,13.2a1.84,1.84,0,0,0,1.55.23,2,2,0,0,0,1.74,1c5.75-.06,11.5-.22,17.24-.52,4.93-.27,11.1.16,15.85-1.22,3.34-1,2.76-4.27,2.87-7.22C120.2,155.52,121.34,149.74,120.21,144.9Zm-37.34,2.85q0-.45.09-.87l.08.05c-.06.31-.11.63-.17.94Zm19.81,3.05.11.12-.31.36Zm-1.6-6.37a1.89,1.89,0,0,0-.11-.25l.21.2Zm4.45,17.12,0,.41-.31,0C105.31,161.84,105.42,161.69,105.53,161.55Zm6.76-.56.15.17q-.33.18-.75.36h0ZM87.68,144.71c.09-.45.17-.82.23-1.11l.58-.17C88.2,143.85,87.93,144.28,87.68,144.71Z" transform="translate(-9.05 -11.18)"/>
    <path class="cls-3" d="M100.9,64V74.39c0,2.73,4.25,2.73,4.25,0V64c0-2.73-4.25-2.74-4.25,0Z" transform="translate(-9.05 -11.18)"/>
    <path class="cls-4" d="M111.37,33.48a3.41,3.41,0,0,0-.24-.64c-.09-.33-.16-.66-.27-1s-.21-.54-.32-.81a2.7,2.7,0,0,0,.23-1.36,13.84,13.84,0,0,0-6-10.62,2.85,2.85,0,0,0-4,.94C95.38,17.53,89.05,17.31,84,21.16c-.37.29-.73.61-1.08.94a3.23,3.23,0,0,0-2.78,2.24q-.25,1-.48,2a43,43,0,0,0-4,10.07,28.23,28.23,0,0,0-1,5,3,3,0,0,0-3.66,2c-1.79,4.33-.35,8.17,2.56,11.52,1.32,1.52,2.29,1,3.23,3.62a16.77,16.77,0,0,1,.38,4.74c.08,3.73-.48,6.94-2.72,10a2.92,2.92,0,0,0,0,3c3.65,5.39,13.41,8.4,19.63,7.68s9.7-3.83,13.06-7.92a2.41,2.41,0,0,0,2.64-1.45,6.46,6.46,0,0,0,.77-3.94,3.5,3.5,0,0,0-.79-1.92,18.72,18.72,0,0,0-.15-3.4,12.79,12.79,0,0,1-.2-2.37c.12-1,.21-2.07.26-3.11.27-1.73.67-3.46.91-5.28a53.76,53.76,0,0,0,.51-7.49,3.17,3.17,0,0,0,1.07-2A34.07,34.07,0,0,0,111.37,33.48Z" transform="translate(-9.05 -11.18)"/>
    <path class="cls-4" d="M75.39,221.67c-5.51-1.6-8.37-8-13.72-10.37-3.29-1.47-8.42-1.63-12.32-3.12a2,2,0,0,0-.52-1.78c-.74-.84-1.43-1.7-2.11-2.58a2.17,2.17,0,0,0-.29-.65c-6.92-10.31-8.75-22.55-10.32-34.61a2.5,2.5,0,0,0-.54-1.27,1.87,1.87,0,0,0,.14-.8q-.3-6.75-.61-13.5c-.13-3,.2-6.15-1.78-8.63-4-5-11.44-8.13-17.23-10.18a2.15,2.15,0,0,0-2.69,2c0,5.63-1.73,11-1.11,16.64.55,5.11,2.26,10,3.63,14.9,1.51,5.45,1.34,11.21,2.92,16.6,1.41,4.85,4.63,9.1,7.39,13.26a117.22,117.22,0,0,1,8.5,14.1,39.45,39.45,0,0,0,8,11.9c3.22,3.29,4.5,6.81,9,8.51a53.13,53.13,0,0,0,16.94,3,2.14,2.14,0,0,0,1.84-3.2,23.32,23.32,0,0,1-4.14-9.53c-.13-.75-.21-1.46-.32-2.13,2.41,2.28,4.84,4.5,8.21,5.48C76.89,226.52,78,222.42,75.39,221.67ZM20.51,146.54c0-.11,0-.21,0-.32a2.75,2.75,0,0,1,.61.24Zm23.57,72.33.15.32-.28-.28Z" transform="translate(-9.05 -11.18)"/>
    <path class="cls-4" d="M167.85,126.67c-.19-2.85,0-8.7-3-10.18-2.52-1.24-5.37,1.41-7.12,2.89a16.82,16.82,0,0,0-3.75,4.83c-1.93,3.28-4.5,4.32-7.72,6.19-2,1.18-.72,4.07,1.2,4a5.5,5.5,0,0,0-.22,2.37c.86,8.67,2.11,17.16,2.26,25.93.17,9.64-.83,18.91-4.43,27.91a19.23,19.23,0,0,0-1.11,3.61,1.73,1.73,0,0,0-.8.27c-3.06,2.06-6.18,4-9.43,5.7l0,0c-6.93,1.12-11.66,6-16.08,11.33a2.15,2.15,0,0,0,1.51,3.62,11.74,11.74,0,0,0,5.89-1.5c1.61-.83,4.41-3.24,6.7-3.43-.6.89-1.46,1.85-1.82,2.34-1.66,2.23-3.54,4.53-6.52,4.91-1.37.18-2.92,1.75-1.83,3.19,5.91,7.81,16.08,6.81,23.54,1.67,9.43-6.51,12.21-18.15,16-28.32,2.25-6.1,4.88-12.17,6.68-18.41,1.6-5.53,1.12-11.11,1.15-16.79C169,148.47,172.79,136.3,167.85,126.67Z" transform="translate(-9.05 -11.18)"/>
    <path class="cls-1" d="M64.52,406.79c-4.33-3.43-12.3-4.3-17.57-5-3.51-.46-8.39-1.6-11.73.08-2-1-4.81-.11-4.54,2.65.71,7.26-3,12.4-4.48,19.18-.9,4.18-1.77,10.46,2.08,13.51,4.12,3.26,8.58.68,12.92-.46,5-1.31,10.5,1,13.29-4.22,1.36-2.53,2.28-5.3,4-7.65s4.41-4.27,6.18-6.81C67,414.78,68.12,409.64,64.52,406.79Z" transform="translate(-9.05 -11.18)"/>
    <path class="cls-1" d="M152.84,409c-1.92-4.73-6.83-8.57-11-11.23-5-3.16-11.22-3.78-17-2.71-5.62,1-8.58,7-11.46,11.43a2.76,2.76,0,0,0,.47,3.72c.44,3.51,4.59,5.38,7.45,7.46,4.74,3.45,8.62,6.63,14.66,7.3,4.22.47,13.42.54,16.8-2.5C155.79,419.68,154.18,412.26,152.84,409Z" transform="translate(-9.05 -11.18)"/>
    <line class="cls-5" x1="130.47" y1="255.05" x2="130.29" y2="255.08"/>
    <path class="cls-5" d="M80,130.88c.14,1.56.29,3.1.54,4.56A21.43,21.43,0,0,1,80,130.88Z" transform="translate(-9.05 -11.18)"/>
    <path class="cls-5" d="M112.8,36.17c.44,0,.87.11,1.33.14,0,.16,0,.3,0,.44a1.18,1.18,0,0,1-.07.53c-.1.35-.64.56-1.22,1.06,0-.1,0-.21,0-.31C112.87,37.4,112.84,36.78,112.8,36.17Z" transform="translate(-9.05 -11.18)"/>
    <path class="cls-5" d="M111.44,67l-.08-.14" transform="translate(-9.05 -11.18)"/>
    <path class="cls-5" d="M99.94,43.52a.67.67,0,0,0-.25-.19.86.86,0,0,1,.2-.15h0a.13.13,0,0,1,0,.06C99.91,43.33,99.93,43.42,99.94,43.52Z" transform="translate(-9.05 -11.18)"/>
    <path class="cls-5" d="M99.89,41.6a1.73,1.73,0,0,0-1.17.46c.06-.59.08-1.2.12-1.78a4.84,4.84,0,0,1,.42-2.23.76.76,0,0,0,.22-.5l.86-.1a12.32,12.32,0,0,0,.86,4.65,1.34,1.34,0,0,0-.78-.43A1.93,1.93,0,0,0,99.89,41.6Z" transform="translate(-9.05 -11.18)"/>
    <polygon class="cls-5" points="80.86 49.27 80.86 49.27 80.85 49.27 80.86 49.27"/>
    <path class="cls-5" d="M96.42,63.29c3.63,0,6.71-2.47,9.56-5.42a.81.81,0,0,0,0-1.13.8.8,0,0,0-1.12,0c-2.76,2.89-5.58,5-8.42,4.94A8.21,8.21,0,0,1,91,59.26a.79.79,0,1,0-1,1.19A9.79,9.79,0,0,0,96.42,63.29Z" transform="translate(-9.05 -11.18)"/>
    <path class="cls-5" d="M94.66,39.05a6.44,6.44,0,0,0-2.27-.38c-2.41,0-4.71,1-6.66,1.48a.8.8,0,0,0-.6,1,.81.81,0,0,0,.78.61.55.55,0,0,0,.18,0h0c.48-.12,1-.26,1.45-.4a2.09,2.09,0,0,0,.83,1.24,1.43,1.43,0,0,0,.4.45,2.46,2.46,0,0,0,1.36.38h.08a1.27,1.27,0,0,0,.91-.34,1.08,1.08,0,0,0,.33-.82,1.69,1.69,0,0,0,0-.35l0-.12a.79.79,0,0,0-.5-1,.83.83,0,0,0-.32-.05h-.09a.93.93,0,0,0-.12-.18,9.07,9.07,0,0,1,2-.25,4.93,4.93,0,0,1,1.72.28.79.79,0,1,0,.55-1.49Z" transform="translate(-9.05 -11.18)"/>
    <path class="cls-5" d="M109.43,37.87c-.21,0-.4,0-.57,0a15.38,15.38,0,0,0-5.15,1.22.8.8,0,0,0,.27,1.55h.11l.47-.08a.71.71,0,0,0,.28.06.74.74,0,0,0,.41-.13.79.79,0,0,0,.54.63,1.27,1.27,0,0,0,.31,0h.09a.84.84,0,0,0,.49.3h.15a.79.79,0,0,0,.77-.66,3.66,3.66,0,0,0,.05-.57c0-.25,0-.47,0-.66a8.53,8.53,0,0,1,1.24-.11,3,3,0,0,1,.43,0,.8.8,0,0,0,.86-.73A.79.79,0,0,0,109.43,37.87Z" transform="translate(-9.05 -11.18)"/>
    <path class="cls-5" d="M107.92,144a.77.77,0,0,0-.67-.58,8.56,8.56,0,0,0-1-.05H106a5.87,5.87,0,0,0-.94-.09,5.53,5.53,0,0,0-1.94.35c-4,.59-8.82,2.16-10.82,4.85a6.76,6.76,0,0,0-1.27,4c0,4.48,3.87,8.69,7.91,9.69a11,11,0,0,0,2.4.26c4.6,0,10.06-2.51,11.87-6.9a6.66,6.66,0,0,0,.46-2.49A10.77,10.77,0,0,0,107.92,144Zm3.82,11a8.85,8.85,0,0,1-4.18,4.27,13.29,13.29,0,0,1-6.22,1.62,9.4,9.4,0,0,1-2-.21c-3.26-.72-6.74-4.62-6.68-8.14a5.17,5.17,0,0,1,1-3.09c1.17-1.79,5-3.27,8.51-4a.79.79,0,0,0,.87,0,4.4,4.4,0,0,1,.62-.3,18.67,18.67,0,0,1,2.31-.2,7.29,7.29,0,0,1,3.93,2.55,9,9,0,0,1,2.24,5.55A5.21,5.21,0,0,1,111.74,154.94Z" transform="translate(-9.05 -11.18)"/>
    <path class="cls-5" d="M97.85,139.13a9.37,9.37,0,0,0,4.3,0,.8.8,0,0,0,.56-.7c0-.12,0-.26,0-.41s.28-.15.43-.25l-.42.09a20.32,20.32,0,0,0,.17-2.19,5.65,5.65,0,0,0-.16-1.43.26.26,0,0,0,0-.09.76.76,0,0,0-.92-.47s-.07,0-.12.07a.79.79,0,0,0-.47.66,3.39,3.39,0,0,0-1.59-.36,6.33,6.33,0,0,0-1.77.29.83.83,0,0,0-.54.55,7.63,7.63,0,0,0-.22,1.85,7.75,7.75,0,0,0,.22,1.85A.81.81,0,0,0,97.85,139.13Z" transform="translate(-9.05 -11.18)"/>
    <path class="cls-5" d="M101.19,137.69a0,0,0,0,0,0,0h-.06Z" transform="translate(-9.05 -11.18)"/>
    <path class="cls-5" d="M107.74,147.89a.76.76,0,0,0-.62-.38c-1-.08-2.27-.25-3.52-.25a8.54,8.54,0,0,0-1.76.16.8.8,0,0,0-.62.94.78.78,0,0,0,.17.34c-2.58,1.36-3.84,3.15-3.85,5,0,2.5,2.41,4.31,5.46,4.32a10.82,10.82,0,0,0,5.62-1.76.86.86,0,0,0,.37-.54,12.37,12.37,0,0,0,.21-2.27A10.82,10.82,0,0,0,107.74,147.89Zm-3,1,1.81.14a8.25,8.25,0,0,1,.68,1.75A5.06,5.06,0,0,0,104.76,148.91Z" transform="translate(-9.05 -11.18)"/>
    <path class="cls-1" d="M45.18,113.12l9.32-.42-3-7.25a36.89,36.89,0,0,0-8.78,14c-1.84,5.16,6.36,7.38,8.19,2.26a27.13,27.13,0,0,1,6.6-10.23c2.52-2.51.72-7.42-3-7.25l-9.32.42c-5.44.25-5.47,8.74,0,8.49Z" transform="translate(-9.05 -11.18)"/>
    <path class="cls-5" d="M74.34,52.6A33.7,33.7,0,0,0,92.2,69.68c1.2.5,1.7-1.29.82-1.94a75.06,75.06,0,0,0-9.69-6A1.07,1.07,0,0,0,82,63.37c4.55,5,11.23,8.58,17.9,5.8s9.92-9.46,12.19-15.87l-2-.57a32.19,32.19,0,0,1-5.8,11.59,13.33,13.33,0,0,1-10,4.88c-3.15.21-7.75-.31-8.59-4.06-1.17-5.27,4.77-7.77,9-7.91l-.29-2.09c-3.67,1.47-7.59,3.37-8.23,7.71h2c-2.16-5.3,5.9-5.88,9.17-5.87,3.86,0,7.76.73,10.54,3.6l1.29-1.66c-5.57-3.29-12-3.06-18.27-2.62a1.06,1.06,0,0,0,0,2.12l7.81.1a75.72,75.72,0,0,0,8.11.08,2.85,2.85,0,0,0,2.56-1.91,53.44,53.44,0,0,0,2.68-7.29L110,49.12c.54,6.21-3,13.44-7.56,17.67-4.19,3.93-14,3.46-17.18-1.7l-.64,1.56c6.63-.94,15.05,3.74,20.34-2.39L103.3,63a9.24,9.24,0,0,1-11.66,2.74l-.82,1.94a14.18,14.18,0,0,0,10-1.43c3.54-2,5.27-5.87,8.64-8L108,56.73a28.67,28.67,0,0,1-4.46,7.08l1.67,1.28,2.66-4c.77-1.14-1.07-2.2-1.83-1.07l-2.66,4c-.67,1,.88,2.2,1.66,1.29a30.33,30.33,0,0,0,4.79-7.51c.4-.88-.47-2.08-1.45-1.45-2.63,1.69-4.18,4.3-6.42,6.4a11.84,11.84,0,0,1-10.6,2.86c-1.12-.24-1.94,1.35-.82,1.94A11.43,11.43,0,0,0,105.14,64c.69-1-.88-2.2-1.67-1.28-4.68,5.42-13.37,1-19.4,1.84a1.07,1.07,0,0,0-.64,1.56c3.4,5.58,12.95,6.76,18.38,3.73,3.23-1.79,5.48-5.54,7.24-8.67a21,21,0,0,0,3.09-12.1,1.07,1.07,0,0,0-2.09-.29,42.77,42.77,0,0,1-1.89,5.41c-.67,1.41-1.06,2-2.57,2.23a20.48,20.48,0,0,1-2.93,0L90.94,56.3v2.12c5.84-.41,12-.76,17.2,2.33a1.06,1.06,0,0,0,1.28-1.67c-3.88-4-9.76-4.53-15-4.11-4.23.34-10.38,3.1-8.21,8.44.34.83,1.88,1.17,2,0,.52-3.58,3.74-5,6.75-6.22,1-.41,1-2.13-.28-2.09-4.73.16-9.78,2.22-11,7.26-1,4.43,2.12,7.89,6.3,8.72,4.55.91,10,0,13.63-3.06,4.33-3.65,7-9.39,8.5-14.72.38-1.33-1.59-1.84-2-.57-2,5.56-4.69,11.46-10.27,14.19-6,2.94-12.13-.48-16.26-5.05l-1.29,1.66a74.05,74.05,0,0,1,9.69,6l.82-1.94a31.67,31.67,0,0,1-16.6-16.11c-.57-1.24-2.4-.17-1.83,1.07Z" transform="translate(-9.05 -11.18)"/>
    <path class="cls-6" d="M30.88,208.53a.23.23,0,0,0,0,.26,4.08,4.08,0,0,0,2.42,1.37.5.5,0,0,1,.08.12c.15.26.51.09.52-.16a.34.34,0,0,0,0-.37,3.3,3.3,0,0,0-1.37-1.09,6.75,6.75,0,0,0-1.47-1.07.31.31,0,0,0-.09-.14" transform="translate(-9.05 -11.18)"/>
    <path class="cls-6" d="M32.92,207.82c.16.38.23.79.39,1.17s.56.11.44-.17-.23-.78-.39-1.16S32.81,207.54,32.92,207.82Z" transform="translate(-9.05 -11.18)"/>
    <path class="cls-6" d="M32.62,205.68c-.47,1.23.15,2.72.45,3.92a.31.31,0,0,0,.48.15.27.27,0,0,0,.08-.07,1.81,1.81,0,0,1,0,.31.32.32,0,0,0,.64-.06,5.47,5.47,0,0,0-.27-1.13,3.73,3.73,0,0,0,0-.57,7.38,7.38,0,0,0-.22-1.88.33.33,0,0,0-.55-.1v0c0-.16-.06-.32-.08-.48S32.74,205.37,32.62,205.68Z" transform="translate(-9.05 -11.18)"/>
    <path class="cls-6" d="M32.54,205.93a3.65,3.65,0,0,0,.68,3.12c.27.3.68-.16.41-.45a3.09,3.09,0,0,1-.49-2.54A.31.31,0,0,0,32.54,205.93Z" transform="translate(-9.05 -11.18)"/>
    <path class="cls-6" d="M32.77,205.67l.26.2,0,0,.07,0a17.58,17.58,0,0,0,1.53,1,14.93,14.93,0,0,0,3.93,2.18c.39.16.58-.43.22-.61l-.41-.22a.52.52,0,0,0-.21,0l-.14-.06a.36.36,0,0,0-.19-.27l-1.28-.64h0a.33.33,0,0,0-.19-.32l-.27-.12-.13-.06a3.89,3.89,0,0,0-1.28-.82,6.17,6.17,0,0,0-1.63-.85A.32.32,0,0,0,32.77,205.67Z" transform="translate(-9.05 -11.18)"/>
    <path class="cls-6" d="M37.61,208.53l1.16.65c.36.2.69-.34.33-.54L37.94,208C37.59,207.79,37.26,208.33,37.61,208.53Z" transform="translate(-9.05 -11.18)"/>
    <path class="cls-6" d="M39.2,207.91a1.69,1.69,0,0,0,.12.27.39.39,0,0,0,.15.41c-.22.07-.35.42-.12.57a.38.38,0,0,0-.05.15.36.36,0,0,0-.14.34A.35.35,0,0,0,39,210a.31.31,0,0,0-.09.56h0a.28.28,0,0,0,.13.26l.29.23c.24.2.51-.06.49-.31l.09,0a.32.32,0,0,0,.41-.21.33.33,0,0,0,.35-.25l.11,0a.32.32,0,0,0,.42-.34.34.34,0,0,0,.22-.42.26.26,0,0,0,0-.38,1.53,1.53,0,0,0-.48-.33.35.35,0,0,0-.2-.32l-.64-.34A.35.35,0,0,0,40,208a.67.67,0,0,1-.22-.37C39.64,207.25,39.07,207.52,39.2,207.91Z" transform="translate(-9.05 -11.18)"/>
    <path class="cls-7" d="M30.81,207c.4.31.81.59,1.25.88a1.7,1.7,0,0,0,.09-1c-.09-.75,0-1.49-.06-2.24a1.84,1.84,0,0,1,0-.33c.06-.32.17-.37.44-.18a12.94,12.94,0,0,0,1.63,1c1.47.74,2.75,1.77,4.14,2.63l.24.14c.32.18.4.14.39-.25a5.06,5.06,0,0,1,0-.87,1.92,1.92,0,0,1,0-.32c0-.12.09-.25.23-.29s.22.09.29.19l1.08,1.45a10,10,0,0,0,1.25,1.43c.43.4.41.51,0,.93a8.68,8.68,0,0,1-2.19,1.52c-.28.15-.61.07-.91.13s-.21-.15-.18-.3a4.4,4.4,0,0,0,.14-1.14.56.56,0,0,0-.36-.59,24.56,24.56,0,0,1-2.64-1.62c-.61-.4-1.23-.77-1.85-1.16-.16.22-.06.41,0,.6.18,1.11.46,2.21.61,3.32a.91.91,0,0,1,0,.33c0,.11,0,.27-.16.32s-.19-.07-.27-.14a21.59,21.59,0,0,0-2.51-1.74m1.88.4.35.27c.07.05.15.11.24.06s.08-.16.07-.24c-.07-.44-.15-.87-.22-1.3l-.46-2.63a2,2,0,0,1,.75.32c1.5.93,3,1.83,4.59,2.64a.49.49,0,0,1,.29.41A5.28,5.28,0,0,1,39,210.8c0,.59,0,.59.55.35.77-.33,1.27-1,2-1.41.16-.09.11-.25,0-.38s-.44-.48-.65-.73c-.41-.53-.81-1.07-1.23-1.6-.08-.11-.14-.3-.32-.23s-.12.25-.12.39,0,.47,0,.71.14.53-.08.66-.47-.13-.67-.26c-.72-.48-1.44-1-2.15-1.49-1.18-.86-2.52-1.46-3.73-2.26,0,0-.1,0-.19,0a3.11,3.11,0,0,0-.09.86c-.05.91.14,1.81.09,2.72,0,.12.05.26-.09.34s-.23-.06-.33-.13" transform="translate(-9.05 -11.18)"/>
    <path class="cls-7" d="M144.82,191.74a4.39,4.39,0,0,1,.25-1c.34-.88.7-1.75,1-2.65.1-.33.39-.55.5-.87,0-.11.17-.12.28-.13,1-.1,1.89-.62,2.87-.8.37-.34.73-.17,1.13,0,.83.32,1.66.62,2.46,1,.4.19.54.41.4.83s-.24.56-.33.85c-.29.92-.72,1.77-1.07,2.66a2.32,2.32,0,0,0-.19.67.61.61,0,0,1-.5.56c-.85.22-1.62.64-2.44.94-.18.07-.37.12-.55.2a.72.72,0,0,1-.71,0c-.72-.47-1.52-.8-2.22-1.29-.23-.17-.44-.36-.67-.53A.44.44,0,0,1,144.82,191.74Zm4.71-2.08a.27.27,0,0,0-.17-.28l-2.28-1.49c-.34-.22-.36-.22-.54.16a22,22,0,0,0-1.16,3c-.17.55-.15.56.33.92l.38.29a18.2,18.2,0,0,0,1.63,1.13c.17.11.29.11.38-.08s.1-.15.14-.23a19.24,19.24,0,0,0,1.22-3.19C149.49,189.83,149.51,189.73,149.53,189.66Zm3.24-.87a.3.3,0,0,0-.31,0,8.06,8.06,0,0,1-1.79.55.68.68,0,0,0-.57.52c-.37,1.12-.76,2.23-1.14,3.34a.23.23,0,0,0,0,.25.16.16,0,0,0,.1,0,21.4,21.4,0,0,0,2.14-.82.44.44,0,0,0,.28-.36c.18-.65.44-1.28.68-1.91A10.7,10.7,0,0,0,152.77,188.79Zm-5.29-1.36a8.67,8.67,0,0,0,1.87,1.32,1.55,1.55,0,0,0,1.24.12c.59-.18,1.17-.42,1.75-.64.1,0,.22-.07.2-.21s-.13-.11-.2-.15L150,186.69a.69.69,0,0,0-.47,0,6.76,6.76,0,0,0-1.32.42C147.94,187.18,147.66,187.19,147.48,187.43Z" transform="translate(-9.05 -11.18)"/>
    <path class="cls-8" d="M155.68,140.44a.31.31,0,0,0,.16-.6h0c.28-.09.23-.5,0-.6h0a.3.3,0,0,0,.08-.21l.26,0c.37-.08.25-.58-.07-.62h0a.26.26,0,0,0-.11-.24.33.33,0,0,0-.29-.38h-.08a.34.34,0,0,0,0-.24l.3.08a.31.31,0,0,0,.23-.58.37.37,0,0,0-.1-.36.32.32,0,0,0,0-.52,6.77,6.77,0,0,0-.66-.33h0a5.17,5.17,0,0,0-2.54-.47.32.32,0,0,0-.17.58l.2.13,0,.06.15.16a.31.31,0,0,0,.05.35l.1.1a.32.32,0,0,0-.06.46H153a.34.34,0,0,0-.29.22.32.32,0,0,0,0,.6l.6.16a.32.32,0,0,0,.18.38.28.28,0,0,0,.21.37l.28.07a.3.3,0,0,0,.05.25l-.46,0c-.35,0-.43.55-.09.61s.46.1.68.16a.25.25,0,0,0,.16.26,2.59,2.59,0,0,1,.91.7C155.5,141.18,155.94,140.74,155.68,140.44Z" transform="translate(-9.05 -11.18)"/>
    <path class="cls-7" d="M151,135a2,2,0,0,1,1.21-.2,1.35,1.35,0,0,0,.63-.12,3.18,3.18,0,0,1,3.17.73.48.48,0,0,0,.7.09c.39-.25.68-.13.93.28a.38.38,0,0,0,.23.2,1.67,1.67,0,0,0,1.81-.61l.06-.09c.05-.08.13-.14.22-.07a.18.18,0,0,1,0,.24,1.06,1.06,0,0,1-.38.38,3.26,3.26,0,0,1-1.14.48.46.46,0,0,0-.45.38.68.68,0,0,1-.54.49c-.3,0-.31.19-.26.45a5.14,5.14,0,0,1-.75,3.52,2.74,2.74,0,0,1-.7.74,6.48,6.48,0,0,1-2.59,1.4c-.91.24-1.79.55-2.71.74a.8.8,0,0,1-1-.38,5.62,5.62,0,0,1-.44-.79c-.36-.64-.71-1.28-1.09-1.9a5.74,5.74,0,0,1-.73-1.73c-.08-.32-.14-.63-.24-.95a1.36,1.36,0,0,1,.55-1.51A9.55,9.55,0,0,1,149,136C149.62,135.63,150.25,135.35,151,135Zm1.52.12-.29.09a.34.34,0,0,0-.27.3c0,.19.11.25.23.32a1.74,1.74,0,0,0,.33.18c.22.12.2.28.08.45s-.4.34-.33.58.37.33.57.48a.38.38,0,0,0,.13.09c.25.12.27.3.2.54-.14.5-.13.51.27.77.58.39.59.4.32,1.08a.31.31,0,0,0,.14.44c.2.13.38.29.56.43s.27.27.14.46-.05.33.16.44a.63.63,0,0,0,.66,0,1.71,1.71,0,0,0,.66-.62,5.39,5.39,0,0,0,.86-2.53,2.07,2.07,0,0,0-.49-1.71,1.06,1.06,0,0,1-.24-.59.8.8,0,0,0-.19-.5,2.87,2.87,0,0,0-2.32-.93A3.81,3.81,0,0,0,152.51,135.12Zm-1.77,4.45a11.23,11.23,0,0,0-2.21,1c-.26.16-.26.32-.13.53l.18.27c.28.4.3.43.74.2a13.4,13.4,0,0,1,1.93-.68c.6-.2,1.2-.39,1.79-.6.3-.11.63-.64.53-.84a1.26,1.26,0,0,0-1.16-.47C151.87,139.22,151.29,139.36,150.74,139.57Zm-.36-.13.71-.27.76-.28a3.4,3.4,0,0,0,.75-.41.42.42,0,0,0,.14-.61,1.15,1.15,0,0,0-1.24-.39,17.54,17.54,0,0,0-3.35,1.62c-.54.29-.57.54-.25,1.08a.28.28,0,0,0,.44.12A10.49,10.49,0,0,1,150.38,139.44Zm.38,1.88c-.51.14-1,.41-1.46.59-.21.08-.29.19-.16.4a3.47,3.47,0,0,0,.18.33c.21.33.23.34.62.21s.88-.33,1.32-.47c.79-.25,1.59-.49,2.39-.71a.83.83,0,0,0,.52-.35.18.18,0,0,0,0-.24,1.36,1.36,0,0,0-1.2-.44Zm.47-5.23a23,23,0,0,0-3.48,1.9,1.73,1.73,0,0,0-.21.17.57.57,0,0,0,0,.69c.15.24.32.06.46,0a34.34,34.34,0,0,1,3.52-1.67,1.41,1.41,0,0,0,.7-.72c.06-.11,0-.19-.08-.27A.73.73,0,0,0,151.23,136.09Zm3.43,6.09a.75.75,0,0,0-.61-.22,4.19,4.19,0,0,0-1.05.23,16.66,16.66,0,0,0-2.83.91c-.16.06-.38.1-.32.35s.28.25.48.24a.5.5,0,0,0,.17,0,29,29,0,0,0,3.52-1A1,1,0,0,0,154.66,142.18Zm-7.25-4.45s.06,0,.07,0c1.26-.68,2.48-1.44,3.81-2a.62.62,0,0,0,.3-.3.16.16,0,0,0,0-.2c0-.08-.12-.07-.18-.06l-.31.1a18.14,18.14,0,0,0-2,.95,8,8,0,0,0-1.34.81C147.56,137.21,147.35,137.4,147.41,137.73Z" transform="translate(-9.05 -11.18)"/>
    <path class="cls-9" d="M158.57,149.94c.26-.46-.43-1-.77-.54l-.58.74c-.21.2-.41.42-.6.64a.45.45,0,0,0-.71-.05,12.67,12.67,0,0,0-1,1.29.43.43,0,0,0-.64,0c-.22.25-.44.49-.64.74a9.67,9.67,0,0,0-1.43,1.75.43.43,0,0,0,.05.5l-.18.48a.49.49,0,0,0,.72.52,7.26,7.26,0,0,0,.65-.58.67.67,0,0,0,.16.25.49.49,0,0,0,.82.44c.21-.24.42-.48.61-.73a.44.44,0,0,0,.26-.3l0-.07c.63-.87,1.17-1.79,1.72-2.71A26.94,26.94,0,0,0,158.57,149.94Z" transform="translate(-9.05 -11.18)"/>
    <path class="cls-10" d="M165.76,142.72a12.44,12.44,0,0,0-3,.73,8.45,8.45,0,0,0,0-1c0-.52-.8-.52-1-.08a9.25,9.25,0,0,0-.44,1.62,14.28,14.28,0,0,1-2.33.62.5.5,0,0,0,.05,1,6.83,6.83,0,0,0,1.75.14l-.12.41a.46.46,0,0,0,.17.55,1,1,0,0,0,0,.17,10.83,10.83,0,0,1-.41,1.68.5.5,0,0,0,.88.45,10.33,10.33,0,0,0,1-1.91l.06-.05c.12-.09.22-.19.33-.29l.15-.05.28-.19a9.8,9.8,0,0,1,1.16,1c.32.33,1,.1.87-.42a3.2,3.2,0,0,0-.85-1.46,15.61,15.61,0,0,0,2-2.1C166.56,143.12,166.15,142.68,165.76,142.72Zm-1.32,1.37a.42.42,0,0,0-.16-.09l.31-.08Z" transform="translate(-9.05 -11.18)"/>
    <path class="cls-7" d="M160.58,146.93a32.18,32.18,0,0,0-2.28,3.47,39.1,39.1,0,0,0-3.11,8.47c-.08.34-.14.69-.19,1a2.23,2.23,0,0,1-.38,1c-.29.42-.61.42-.77,0a4.83,4.83,0,0,1-.48-2.51.45.45,0,0,0-.19-.52,3.68,3.68,0,0,0-1,1.27c-.09.14-.15.29-.23.43s-.21.37-.42.32-.31-.31-.3-.54a14.89,14.89,0,0,1,.26-2.43c-.58,0-.88.43-1.28.65a6.42,6.42,0,0,1-.65.41c-.41.18-.72-.06-.62-.51a4.48,4.48,0,0,1,.63-1.7,31.17,31.17,0,0,1,5.27-6c1.13-1,2.39-1.72,3.6-2.56.2-.14.44-.25.55-.55a10.91,10.91,0,0,0-1.28-.64c-.43-.28-.45-.52,0-.77.89-.52,1.78-1,2.7-1.49a.85.85,0,0,0,.58-.87,4.33,4.33,0,0,1,.46-1.55c.1-.27.25-.55.61-.53a.74.74,0,0,1,.66.49,9.59,9.59,0,0,1,.45,1.16c.14.45.39.63.86.48s1-.26,1.49-.38a2.78,2.78,0,0,1,.57-.07c.79,0,1,.33.64,1-.29.5-.66.95-1,1.43-.44.67-.44.68.14,1.25a3,3,0,0,1,.83,1.7c.1.63-.05.77-.66.58a21.35,21.35,0,0,1-2.09-.7c-.51-.23-.77,0-1,.36a7.46,7.46,0,0,1-1.53,2c-.22.2-.45.42-.76.28s-.23-.42-.28-.67a4.46,4.46,0,0,1,.24-2.08A.76.76,0,0,0,160.58,146.93Zm-.92.33c-.35,0-.43,0-.47,0a29.7,29.7,0,0,0-5.62,4.3,44.86,44.86,0,0,0-3.13,3.76,2.23,2.23,0,0,0-.65,1.56,7.15,7.15,0,0,0,1.41-.71c.3-.15.62-.5,1-.26s.1.71,0,1.07a2.16,2.16,0,0,0-.15,1.16,4.83,4.83,0,0,1,1-1.14c.29-.22.47-.75.91-.53s.13.69.14,1.06c0,.62-.31,1.26.23,2.06a47.67,47.67,0,0,1,2.08-6.38A23.64,23.64,0,0,1,159.66,147.26Zm1.45,2.1c.56-.12.71-.54.95-.86s.53-.81.82-1.19c.5-.67.51-.66,1.25-.27a2.58,2.58,0,0,0,1.81.53c.08-.57-.27-.89-.66-1.19-.86-.66-.86-.66-.22-1.53.13-.18.3-.33.43-.52a3.87,3.87,0,0,0,.73-1.24,6.86,6.86,0,0,0-2.3.43c-.8.23-.93.17-1.19-.62a3.31,3.31,0,0,0-.61-1.31,2.53,2.53,0,0,0-.51,1.59,6.32,6.32,0,0,1,0,.87c-.06.43-.24.53-.63.3a.41.41,0,0,0-.5,0,14.06,14.06,0,0,0-2,1.18,2.06,2.06,0,0,0,1.66.61c1.11-.12,1.39.21,1.17,1.3A4.37,4.37,0,0,0,161.11,149.36Z" transform="translate(-9.05 -11.18)"/>
    <path class="cls-11" d="M158.93,193.85a2.49,2.49,0,0,0-.44.14.31.31,0,0,0-.46-.09l-.35.3a.25.25,0,0,0-.33-.25,4.06,4.06,0,0,0-.63.24.3.3,0,0,0-.19-.46.28.28,0,0,0-.14-.27c-.75-.4-1.32.22-1.27,1a1.44,1.44,0,0,0-.3.74.28.28,0,0,0,.21.28.2.2,0,0,0,0,.1c.21.58.35,2.13,1.34,1.89.34-.08.63-.45.85-.69s.24-.28.36-.42.35-.31.52-.47a.26.26,0,0,0,.08-.26c.17-.18.33-.37.49-.55a.36.36,0,0,0,.07-.27c.15-.14.29-.29.43-.44A.29.29,0,0,0,158.93,193.85Zm-3.05,2.56a2.91,2.91,0,0,1-.12-.39L156,196a.35.35,0,0,0,.06.17C156,196.23,155.92,196.32,155.88,196.41Zm-.06-1.62-.32.08a.9.9,0,0,1,.15-.19,2.09,2.09,0,0,0,.43-.11A2.75,2.75,0,0,0,155.82,194.79Zm.77.31a4,4,0,0,1-.47.21l0-.05a5.46,5.46,0,0,0,.59-.3Z" transform="translate(-9.05 -11.18)"/>
    <path class="cls-7" d="M160.85,194.49a7.66,7.66,0,0,0,.5-.94c.08-.18,0-.36-.21-.33-.38.05-.75,0-1.12,0-.1,0-.2,0-.23.1s0,.2.15.25.35.08.42.3a2.7,2.7,0,0,1-.9.41c-.11-.18-.07-.38-.21-.52a1.48,1.48,0,0,0-1.75-.42.59.59,0,0,1-.68-.05l-.32-.2a1.36,1.36,0,0,0-1.77.36,3,3,0,0,0-.29,2.23c.05.18.29.33.18.53s-.33.26-.51.37a3.25,3.25,0,0,0-.51.3,1.09,1.09,0,0,1-1,.18,1.68,1.68,0,0,0-.67,0,1.48,1.48,0,0,1,0,.23,2.18,2.18,0,0,0,.44.11.08.08,0,0,1,.06.11s0,.07,0,.11a.18.18,0,0,1-.21.07,4.17,4.17,0,0,1-1.06.05v0c0,.13.08.19.18.23a.78.78,0,0,0,.21,0c.43.06.43.06.35.48a1.1,1.1,0,0,0,0,.16.18.18,0,0,0,.14.2.09.09,0,0,0,.1,0c0-.14.08-.27.13-.4a1.93,1.93,0,0,1,.19-.47,1,1,0,0,1,.32-.2c0-.09.17,0,.15.07l0,.07a0,0,0,0,1,0,0c0,.08-.05.15-.08.22s.19.09.3,0a.68.68,0,0,0,.18-.38c0-.15,0-.33.2-.42a11.22,11.22,0,0,1,1.34-.79.31.31,0,0,1,.42.1c.08.12.18.22.26.34a6.55,6.55,0,0,0,.91,1.12c.26.29.35.28.55-.07a10.19,10.19,0,0,1,1-1.51,6,6,0,0,0,.78-1,2.83,2.83,0,0,1,1.34-1.1l.15-.07a2.52,2.52,0,0,1,.4-.21c.08,0,.13.06.09.12s0,0,0,0a2.5,2.5,0,0,1-.07.26A.17.17,0,0,0,160.85,194.49Zm-4.36,3.26a13.64,13.64,0,0,1-1.6-2.36,2,2,0,0,1,.27-1.79.76.76,0,0,1,.81-.3,1,1,0,0,1,.84.51.37.37,0,0,1,0,.31c0,.09,0,.19.07.22a.23.23,0,0,0,.24-.08l.18-.26a1,1,0,0,1,1.65,0c.18.23.09.55-.25.76s-.75.41-1.13.61c-.16.08-.42.14-.33.34s.32,0,.49,0,.32-.21.59-.19A12.87,12.87,0,0,1,156.49,197.75Z" transform="translate(-9.05 -11.18)"/>
    <path class="cls-10" d="M25.81,178.68a7.48,7.48,0,0,0,1.34.09.38.38,0,0,0,.17-.7.44.44,0,0,0-.12-.27,11.22,11.22,0,0,0-3-1.5l0,0a3.63,3.63,0,0,0-.41-.47.47.47,0,0,0-.1-.16,1.53,1.53,0,0,0-.47-.31l-.14-.11h0c.34,0,.62-.39.31-.64a9,9,0,0,0-1.14-.8.33.33,0,0,0-.11-.34c-.41-.34-.83-.66-1.25-1l.13,0a.38.38,0,0,0,.39-.57,3.29,3.29,0,0,0-.48-.57.36.36,0,0,0,.2-.63,5,5,0,0,0-.79-.62.34.34,0,0,0,.22-.45,3.29,3.29,0,0,0-.6-.93c.27-.07.46-.41.17-.61s-.73-.47-1.11-.7a.38.38,0,0,0-.52.45,3.73,3.73,0,0,0,.67,1l-.17-.08c-.26-.1-.68.13-.52.45a2.35,2.35,0,0,0,.47.65.39.39,0,0,0-.1.5,2.33,2.33,0,0,0,.37.46,3.55,3.55,0,0,0-.44-.21.37.37,0,0,0-.41.61,12.13,12.13,0,0,0,1.29,1.19.37.37,0,0,0-.19.7l.62.32a4.89,4.89,0,0,0-.86-.2.37.37,0,0,0-.23.7c1,.62,2.18,1,3.21,1.59a.25.25,0,0,0,0,.16,5.36,5.36,0,0,0-1.81-.5c-.39,0-.63.5-.23.69a9.14,9.14,0,0,0,2.3.76l.21.12a4.1,4.1,0,0,0-.86,0c-.34,0-.5.57-.14.7l1.7.61a.33.33,0,0,0,.27.43A9.72,9.72,0,0,0,25.81,178.68Z" transform="translate(-9.05 -11.18)"/>
    <path class="cls-7" d="M17.9,168.82a4.56,4.56,0,0,1,.66-1.72c.4-.71,1.16-.75,1.84-.91.23-.05.26.16.2.34a2.79,2.79,0,0,0-.13.91,7.75,7.75,0,0,0,1,3.43,14.14,14.14,0,0,0,4.7,5.58c.37.26.72.54,1.08.81a3.16,3.16,0,0,0,2.15.77,3.73,3.73,0,0,1,1.36.37c.37.12.32.55.36.85s-.27.36-.49.4a2.74,2.74,0,0,1-1.6-.15,2.13,2.13,0,0,0-1.32-.1,6.28,6.28,0,0,1-3.48-.36,10.65,10.65,0,0,1-5.35-4.46,7.74,7.74,0,0,1-1.07-4.35C17.81,169.76,17.87,169.29,17.9,168.82Zm1.28-1.67c-.08.08-.15.11-.19.17a2.9,2.9,0,0,0-.19.29,5.51,5.51,0,0,0-.58,3,7.29,7.29,0,0,0,1,3.87,10.39,10.39,0,0,0,5,4.22,5.84,5.84,0,0,0,3.06.47.74.74,0,0,0,.68-.43.8.8,0,0,0-.39-.87c-.83-.51-1.54-1.18-2.33-1.75a11.61,11.61,0,0,1-2-1.88,13.32,13.32,0,0,1-2.67-4.81,5.9,5.9,0,0,1-.36-1.29c0-.56-.73-.47-.91-.89C19.28,167.19,19.25,167.19,19.18,167.15Z" transform="translate(-9.05 -11.18)"/>
    <path class="cls-12" d="M152.78,128.82a2.37,2.37,0,0,0,.57.67c.22.25.19.36-.12.53-.57.31-.57.31-.94-.19-.13-.17-.27-.33-.4-.49a2.12,2.12,0,0,0-.2-.17,3,3,0,0,0-.63,1.06c0,.11-.06.23-.11.34a.42.42,0,0,1-.58.25.4.4,0,0,1-.24-.58c.12-.28.26-.55.39-.83a.76.76,0,0,0,.12-.59,6.68,6.68,0,0,0-1.08.15c-.27,0-.54,0-.6-.33s.08-.5.46-.59.61-.1.91-.14.39-.14.23-.41l-.35-.54a.58.58,0,0,1,.12-.91c.16-.13.3-.13.42,0s.33.52.51.77.35.31.56,0a6,6,0,0,0,.5-.93c.15-.38.4-.27.64-.19s.21.31.12.52a5.66,5.66,0,0,0-.56,1.33l1.37-.08c.27,0,.45.07.45.39s-.06.61-.4.68A3,3,0,0,0,152.78,128.82Z" transform="translate(-9.05 -11.18)"/>
    <path class="cls-13" d="M30.67,142.32a.44.44,0,0,0-.3-.19,1,1,0,0,0-.38,0,1.65,1.65,0,0,0-1,.26,2,2,0,0,0-.95,1.58,1.39,1.39,0,0,0,1.23,1.5,1.82,1.82,0,0,0,1.68-1.21A1.88,1.88,0,0,0,30.67,142.32Z" transform="translate(-9.05 -11.18)"/>
    <path class="cls-14" d="M27.41,142.09A.37.37,0,0,0,27,142a.8.8,0,0,0-.42.21.43.43,0,0,0-.09.28.37.37,0,0,0,.1.44.25.25,0,0,0,.12.11.37.37,0,0,0,.21.26.36.36,0,0,0,.47-.19,1.15,1.15,0,0,0,.11-.45l.05-.1A.38.38,0,0,0,27.41,142.09Z" transform="translate(-9.05 -11.18)"/>
    <path class="cls-14" d="M28.11,146.19a.49.49,0,0,0-.21-.28.5.5,0,0,0-.36-.06.7.7,0,0,0-.23.11.52.52,0,0,0-.19.11.77.77,0,0,0-.13.69.39.39,0,0,0,.19.23.36.36,0,0,0,.29,0,1,1,0,0,0,.47-.28.74.74,0,0,0,.16-.27A.57.57,0,0,0,28.11,146.19Z" transform="translate(-9.05 -11.18)"/>
    <path class="cls-14" d="M32,145.62a.5.5,0,0,0-.05-.13.38.38,0,0,0-.49-.13.92.92,0,0,0-.43.24.36.36,0,0,0,0,.49.88.88,0,0,0,.12.28.38.38,0,0,0,.52.12A.69.69,0,0,0,32,145.62Z" transform="translate(-9.05 -11.18)"/>
    <path class="cls-14" d="M32.59,142.58a.85.85,0,0,0-.24,0,.35.35,0,0,0-.14.06h0a1,1,0,0,0-.5.6.33.33,0,0,0,.16.41.36.36,0,0,0,.25,0,.69.69,0,0,0,.55-.17.83.83,0,0,0,.27-.69A.3.3,0,0,0,32.59,142.58Z" transform="translate(-9.05 -11.18)"/>
    <path class="cls-7" d="M32.82,144.07a.69.69,0,0,0-.27.73c.11.75.16,1.5.23,2.25a2.06,2.06,0,0,1,0,.43c0,.4-.22.51-.54.28a9.89,9.89,0,0,1-.9-.7c-.39-.33-.82-.62-1.25-.92a.63.63,0,0,0-.89.05c-.52.48-1.07.93-1.6,1.4a4.33,4.33,0,0,1-.94.64c-.38.19-.53.12-.54-.3a8.15,8.15,0,0,1,.16-2.26l0-.14a1.51,1.51,0,0,0-.66-1.9,4.51,4.51,0,0,1-1.36-1.52c-.17-.33-.13-.42.22-.49a8.2,8.2,0,0,1,2.75-.07.71.71,0,0,0,.73-.32m6.51.64-6.23-.6c-.31.59-.3.6-1,.56a8.27,8.27,0,0,0-2.11,0c-.57.11-.6.18-.23.65a6.4,6.4,0,0,0,1.35,1.35,1.12,1.12,0,0,1,.45,1.36c-.14.62-.19,1.26-.26,1.82,0,.21,0,.36,0,.5,0,.34.15.4.46.23a1.84,1.84,0,0,0,.22-.17c.66-.55,1.32-1.09,1.95-1.65s.45-.42,1-.06,1.15,1,1.78,1.39c.34.23.49.16.47-.24,0-.77-.12-1.55-.24-2.32a.63.63,0,0,1,.3-.76" transform="translate(-9.05 -11.18)"/>
    <path class="cls-15" d="M21.22,138.41h-.29l0,0a.34.34,0,0,0-.25-.62,6.65,6.65,0,0,1-1.34.06s0-.08,0-.12v-1.34a.34.34,0,0,0-.68,0,7.13,7.13,0,0,0,0,.8.32.32,0,0,0-.33.32c0,.11,0,.22,0,.33a3.76,3.76,0,0,0-2.52.68c-.25.19,0,.57.23.58h.32l-.27.1c-.4.14-.26.77.17.65.2,0,.4-.12.6-.19.5-.14,1-.24,1.53-.36a1.71,1.71,0,0,0,.31.67v.75a.34.34,0,0,0,.68,0c0-.14,0-.31,0-.48a.32.32,0,0,0,.13-.26,8.42,8.42,0,0,0,0-.87h1.71A.34.34,0,0,0,21.22,138.41Zm-2.92,0h0Z" transform="translate(-9.05 -11.18)"/>
    <path class="cls-7" d="M19.29,134.88a12.4,12.4,0,0,0,.42,1.59c.16.59.43,1,1.11,1.1.51.06,1,.21,1.52.31a3.89,3.89,0,0,1,.49.12c.3.1.33.32.06.49a19.77,19.77,0,0,1-1.71,1,2.12,2.12,0,0,0-1.25,1.76c-.07.59-.19,1.16-.28,1.75a1.71,1.71,0,0,1-.25.66.83.83,0,0,1-.19.15c-.18,0-.22-.13-.25-.25-.26-1-.65-1.88-.93-2.83a1,1,0,0,0-1-.79,6.17,6.17,0,0,1-2.19-.57c-.1-.06-.22-.09-.32-.15s-.21-.14-.2-.27.14-.17.25-.21c.82-.35,1.69-.6,2.49-1a1.21,1.21,0,0,0,.69-.82c.21-.83.53-1.62.66-2.47m-3.31,4.49c.12.29.39.32.63.4a8.21,8.21,0,0,0,2,.39c.29,0,.49.1.55.42.11.58.38,1.12.48,1.71a1.7,1.7,0,0,0,.4.92.53.53,0,0,0,.22-.39c.13-.65.3-1.3.38-1.95a1.05,1.05,0,0,1,.45-.75,17,17,0,0,1,1.65-1c.13-.08.33-.1.29-.37a8.74,8.74,0,0,0-1.82-.49.62.62,0,0,1-.6-.48c-.27-.68-.52-1.36-.73-2.07,0-.14,0-.35-.29-.36a22,22,0,0,0-.72,2.56c-.05.22-.08.43-.34.47a19.69,19.69,0,0,0-1.88.62A1.16,1.16,0,0,0,15.1,138.94Z" transform="translate(-9.05 -11.18)"/>
    <path class="cls-7" d="M38.8,198.26a5.8,5.8,0,0,1,2.7.16l0,0c1,.34,1,.43,1.05,1.64a9,9,0,0,1-.13,1.74,1.57,1.57,0,0,1-.5.93.55.55,0,0,1-.81,0,17.09,17.09,0,0,1-2.7-2.62C37.64,199,38,198.6,38.8,198.26Zm.2.49c.19.11.3.13.4,0A.25.25,0,0,0,39,198.75Zm2.23,3.5a.18.18,0,0,0-.19-.09s0,.08,0,.11a.17.17,0,0,0,.18.1S41.23,202.29,41.23,202.25Z" transform="translate(-9.05 -11.18)"/>
    <path class="cls-7" d="M40.48,197a.72.72,0,0,1-.65-.05.7.7,0,0,1-.27-1,1.26,1.26,0,0,1,.72-.57c.29-.09.55.06.73.4a.69.69,0,0,1,0,.9A.76.76,0,0,1,40.48,197Z" transform="translate(-9.05 -11.18)"/>
    <path class="cls-7" d="M42.59,196.72a.89.89,0,0,1,.62,0,.6.6,0,0,1,.42.46.52.52,0,0,1-.15.57,1.22,1.22,0,0,1-1.34.11.47.47,0,0,1-.28-.42.41.41,0,0,1,.19-.42Z" transform="translate(-9.05 -11.18)"/>
    <path class="cls-7" d="M43.87,201.57c.25-.15.54,0,.84.21a.8.8,0,0,1,.27.59c0,.21-.14.21-.24.27a2,2,0,0,1-1.27.07.43.43,0,0,1-.36-.32c-.09-.25,0-.37.15-.5A1.27,1.27,0,0,1,43.87,201.57Z" transform="translate(-9.05 -11.18)"/>
    <path class="cls-7" d="M43.91,199.39a.84.84,0,0,1,.74,0,.41.41,0,0,1,.17.65,1.28,1.28,0,0,1-1.25.49.44.44,0,0,1-.27-.7A.8.8,0,0,1,43.91,199.39Z" transform="translate(-9.05 -11.18)"/>
    <path class="cls-16" d="M168.08,126.4l.09-.57c.05-.28-.21-.63-.52-.49a3,3,0,0,0-1.21,1,3,3,0,0,0-.06-.43.42.42,0,0,0-.67-.3.44.44,0,0,0-.58-.23c.06-.47.11-.95.14-1.44s-.57-.47-.78-.18a9.17,9.17,0,0,0-.83,1.45v-.11c0-.46-.57-.47-.78-.18l-.19.29c0-.36-.63-.51-.78-.13s-.27.66-.41,1c0-.16,0-.32,0-.47a.42.42,0,0,0-.82-.08l-.15.55a.35.35,0,0,0-.37.22c0,.13-.1.27-.14.4a.41.41,0,0,0-.63-.12.42.42,0,0,0-.64.11,3.06,3.06,0,0,0-.1.41.36.36,0,0,0,0,.23,16.46,16.46,0,0,0-.36,2,.49.49,0,0,0,.1.34,5.19,5.19,0,0,0-.31,1.72.42.42,0,0,0,.78.17c.12-.18.24-.37.35-.57a.47.47,0,0,0,.43.09l0,.1a.42.42,0,0,0,.59.46,5.15,5.15,0,0,0,.09,1c.05.33.54.38.72.14a.35.35,0,0,0,.42-.3c.31-1.75.91-3.42,1.19-5.17l.06-.15c-.26,1.86-.75,3.68-1.16,5.51-.09.45.6.74.77.29.87-2.2,1.06-4.63,1.93-6.81-.16.9-.38,1.78-.61,2.67a14.55,14.55,0,0,0-.87,3.51c-.06.52.7.72.81.18.23-1.12.53-2.23.81-3.34.11-.29.22-.59.34-.88-.38,1.92-1.14,3.79-1.46,5.72a.42.42,0,0,0,.81.19c.22-1,.5-2.06.81-3.07-.16.8-.31,1.6-.51,2.39l-.15.52c-.14.53.66.7.81.19.06-.19.11-.38.16-.57.27-1,.59-2,.85-3a21.44,21.44,0,0,1-.75,3.83c-.15.44.61.72.77.29a.49.49,0,0,0,0-.11h0v0a31.06,31.06,0,0,0,1.05-3.4.31.31,0,0,0,0-.1,29.54,29.54,0,0,1,1.26-4.11A.43.43,0,0,0,168.08,126.4ZM166.47,128a4.16,4.16,0,0,1,.73-1.31c0,.16,0,.32-.08.48a5.22,5.22,0,0,0-.75,1.7A8.58,8.58,0,0,0,166.47,128Z" transform="translate(-9.05 -11.18)"/>
    <path class="cls-7" d="M169.28,129c-.81,1.9-1,2.44-1.7,4.36-.25.65-.54,1.28-.75,1.95s-.47.63-1,.37c-.86-.41-1.73-.83-2.6-1.22a26.8,26.8,0,0,1-3.08-1.86c-.91-.57-1.8-1.18-2.71-1.77l-.18-.12c-.72-.53-.79-.65-.32-1.39.76-1.17,1.3-2.46,2-3.65a.88.88,0,0,1,.65-.5,29,29,0,0,0,2.81-.72,30.14,30.14,0,0,0,3.21-1,.7.7,0,0,1,.61.06,11,11,0,0,1,1.75,1.1m-1.89,9.51c.2-1.79.39-3.52.57-5.26,0-.28.08-.57.1-.85,0-.64-.1-.75-.69-.6l-.14,0a36.64,36.64,0,0,1-4,1.2,1,1,0,0,0-.64.45A42,42,0,0,0,166.09,134.1Zm0,1.13a2.71,2.71,0,0,0-.92-1.48,22.16,22.16,0,0,1-2.85-3,8.16,8.16,0,0,0-1-1.09,1.1,1.1,0,0,0-1.23-.31c-.77.26-1.56.46-2.35.69-.13,0-.3.07-.34.23s.17.26.29.36c.87.71,1.9,1.2,2.82,1.84a18,18,0,0,0,2.08,1.29c.83.43,1.69.8,2.54,1.18C165.39,135,165.64,135.3,166.09,135.23Zm3.47-8.91c-.42.11-.83.24-1.24.36-1.13.32-1.13.32-1.26,1.44-.18,1.62-.38,3.24-.54,4.86a4.52,4.52,0,0,0,.06,1.67,2.31,2.31,0,0,0,.59-1.06c.77-2.11,1.3-3.37,2.16-5.45m-6.25,0v0c.89-.3,1.77-.59,2.65-.91.5-.18.51-.31.09-.66s-.68-.54-1-.8-.68-.53-1-.77-.52-.2-.74.19c-.3.57-.59,1.15-.87,1.73a9.58,9.58,0,0,0-.39.93c-.06.15-.17.31-.05.47s.31.06.46,0ZM159,129.35v0l1.32-.35c.6-.16.67-.28.34-.77a7.67,7.67,0,0,1-.64-1.2,3.57,3.57,0,0,0-.66-.93c-.17-.2-.36-.26-.51,0l-1.68,3.17,0,.07c-.1.34,0,.45.33.37C158,129.64,158.49,129.49,159,129.35Zm3.87-4.83c-1.07.29-2,.53-3,.8-.51.14-.54.22-.26.7s.69,1.21,1,1.8a1,1,0,0,0,.55.51C161.66,127,162.54,126,162.87,124.52Zm1.29-.45c-.21.06-.39.12-.44.29s.13.3.25.39c.79.63,1.58,1.25,2.38,1.86.29.22.4.17.45-.2a9.6,9.6,0,0,0-.13-1.85,1,1,0,0,0-1.25-.83A3.49,3.49,0,0,1,164.16,124.07Zm4.4,2.05c-.76-.5-.49-1.13-1.15-1.55-.31-.19-.45-.1-.42.26s.1,1,.14,1.49c0,.22.13.34.32.28A2.37,2.37,0,0,0,168.56,126.12Z" transform="translate(-9.05 -11.18)"/>
    <path class="cls-17" d="M158.82,123a1.92,1.92,0,0,0-.47-1c-.11-.1-.33-.23-.42,0s-.09.21-.14.31a9.07,9.07,0,0,0,.26.89,1.39,1.39,0,0,1,.12.28v0l.06.12a.27.27,0,0,0,.36.12.43.43,0,0,0,.31-.49A1.67,1.67,0,0,0,158.82,123Z" transform="translate(-9.05 -11.18)"/>
    <path class="cls-17" d="M155.63,126.85a6.45,6.45,0,0,1-1.44-1C155,125.54,155.51,125.91,155.63,126.85Z" transform="translate(-9.05 -11.18)"/>
    <path class="cls-17" d="M163.56,120a4.5,4.5,0,0,1,0,1.27c0,.12-.08.24-.23.22a.25.25,0,0,1-.23-.24,3.45,3.45,0,0,1,.07-1.28c0-.11.05-.25.21-.24S163.53,119.91,163.56,120Z" transform="translate(-9.05 -11.18)"/>
    <path class="cls-17" d="M153.48,128.82c.61-.27,1.08,0,1.55.05a.12.12,0,0,1,.1.16c0,.06-.09.13-.14.13A1.78,1.78,0,0,1,153.48,128.82Z" transform="translate(-9.05 -11.18)"/>
    <path class="cls-11" d="M167.43,158.75a1.79,1.79,0,0,0-.64-1.15c0-.11-.11-.21-.22-.18a7.23,7.23,0,0,0-1.6-1.1,3.38,3.38,0,0,0-1.53-.33,5.57,5.57,0,0,0-.67-.12,1.84,1.84,0,0,0-1.19.37,2,2,0,0,0-.67.39.19.19,0,0,0,0,.29,1.86,1.86,0,0,0-.51.66.23.23,0,0,0-.33.07l-.29.5-.23.08,0-.07c.06-.17-.14-.33-.3-.28-.5.17-.7,1.13-.27,1.2a1.43,1.43,0,0,0,0,.77.2.2,0,0,0,.09.11.38.38,0,0,0,.44.4.47.47,0,0,0,.17,0v.11a.24.24,0,0,0,.36.19l.17-.14h0a2.25,2.25,0,0,0,.08.69h0a.22.22,0,0,0,.23.29h0c0,.2.19.39.37.26a.21.21,0,0,0,.23,0l.11-.06a.22.22,0,0,0,.33.12l0,0a.26.26,0,0,0,.21.05h0a.17.17,0,0,0,.06.08l-.18,0c-.29.09-.2.55.09.46a2.27,2.27,0,0,1,.93.08h.05a1.12,1.12,0,0,0,.55-.08.27.27,0,0,0,.27.06,2.21,2.21,0,0,0,.77-.51.22.22,0,0,0,.06-.14.22.22,0,0,0,.16-.05,6.79,6.79,0,0,0,.6-.6.2.2,0,0,0,.12.08.73.73,0,0,0,.45-.08.2.2,0,0,0,.24-.1l.23-.38.23-.38h0a.21.21,0,0,0,.35.08l0-.06a.22.22,0,0,0,.25-.16,2,2,0,0,0,.05-.73c.09-.15.19-.29.27-.44A.22.22,0,0,0,167.43,158.75Zm-7.59.9-.13.15a.34.34,0,0,1-.12.09v-.07a1.85,1.85,0,0,0,.31-.37Zm4.42-2.86.07,0h0a.8.8,0,0,0-.13.13A1.34,1.34,0,0,0,164.26,156.79Zm-.86-.34,0,.06a.06.06,0,0,0,0-.06h.05Zm-1.1.09h0Zm-1.62,2.67h0l-.09.15Zm-.1,1c0-.06.11-.12.16-.19a.2.2,0,0,0,.12.06Zm4.62,0s0,0,0,0a5.61,5.61,0,0,0-.63.73,1.14,1.14,0,0,1-.43.2.17.17,0,0,0-.12.13l-.05,0-.15.14a2.1,2.1,0,0,0-.59.22l-.42,0h0a.23.23,0,0,0-.34-.2.26.26,0,0,0-.21-.12h-.07c-.25-.22-.49-.43-.75-.64a1,1,0,0,0,.07-.55.25.25,0,0,0-.35-.15h0a6.08,6.08,0,0,0,1-2,.16.16,0,0,0,.07.07.25.25,0,0,0,.33.22,1.07,1.07,0,0,0,.32-.16.24.24,0,0,0,.36.08l.1-.1a.26.26,0,0,0,.39.18l.11-.08a2.08,2.08,0,0,0,.61.24l.21-.21,0,0c-.11.21.17.47.36.31l0,0a.78.78,0,0,1-.05.14.27.27,0,0,0,.13.33.26.26,0,0,0,.15.33.27.27,0,0,0,0,.2,1.48,1.48,0,0,0,0,.21s0,0,0,.07l-.06.15A.24.24,0,0,0,165.2,160.19Z" transform="translate(-9.05 -11.18)"/>
    <g>
      <path class="cls-18" d="M160,157.59a.24.24,0,0,0,.25-.22v-.08A.24.24,0,0,0,160,157a.24.24,0,0,0-.25.22v.08A.24.24,0,0,0,160,157.59Z" transform="translate(-9.05 -11.18)"/>
      <path class="cls-18" d="M163.2,162.9h-.15a.82.82,0,0,0-.38,0,.2.2,0,0,0-.12.08,4.14,4.14,0,0,0-.61,0h-.05a2.41,2.41,0,0,1-.51-.18h0c.26,0,.28-.35,0-.4h-.14c-.69-.14-1.53-1-1.44-1.67,0-.26-.36-.28-.39,0a2.1,2.1,0,0,0,1.23,1.89h0c.22.71,1.25.82,1.87,1a.21.21,0,0,0,.21-.08,1,1,0,0,0,.51-.14.21.21,0,0,0,.09-.28A.17.17,0,0,0,163.2,162.9Z" transform="translate(-9.05 -11.18)"/>
      <path class="cls-18" d="M166.81,161l-.28.28a.25.25,0,0,0-.07.17.26.26,0,0,0,0,.28,1.77,1.77,0,0,1-.12.17.16.16,0,0,0-.15,0l-.3.23a.23.23,0,0,0-.34-.07l-.2.16a.23.23,0,0,0-.3-.13,1.8,1.8,0,0,0-1,1,.26.26,0,0,0,.18.36,1,1,0,0,0,.84-.23.21.21,0,0,0,.29,0l.7-.56a.26.26,0,0,0,.17,0c.23-.12.85-.71.77-1.07l.2-.25A.26.26,0,0,0,166.81,161Z" transform="translate(-9.05 -11.18)"/>
      <path class="cls-18" d="M164.27,159.46a.18.18,0,0,0,.23,0,.2.2,0,0,0,0-.39h0a.27.27,0,0,0-.08-.07.23.23,0,0,0-.11-.11l-.11-.05-.4-.22a.48.48,0,0,0,0-.12.27.27,0,0,0-.24-.22,1,1,0,0,0-.35,0h0a4.4,4.4,0,0,0-.94.16.27.27,0,0,0,0,.53.2.2,0,0,0,.26.1c.22-.06.45-.19.69-.25a4,4,0,0,0,.73.34.21.21,0,0,0,0,.06.54.54,0,0,0,.24.16Z" transform="translate(-9.05 -11.18)"/>
    </g>
    <g>
      <path class="cls-7" d="M163.13,164.13a6.27,6.27,0,0,1-1.06-.13,2.37,2.37,0,0,1-1.23-.62,8,8,0,0,1-1.68-2.19,3.74,3.74,0,0,1,0-3.46,3.28,3.28,0,0,1,1.49-1.5,5.13,5.13,0,0,1,6.42,1.35,3.46,3.46,0,0,1,.76,3.07,2.87,2.87,0,0,1-.3.75,3.91,3.91,0,0,1-1.08,1.39,9.26,9.26,0,0,1-1.83,1.1A3.21,3.21,0,0,1,163.13,164.13Zm-.21-8.29a3.61,3.61,0,0,0-1.53.31,1.05,1.05,0,0,0-.78.88.71.71,0,0,1-.75.59.7.7,0,0,0-.7.56,3.27,3.27,0,0,0-.17,1.67c.08.54.13.62.69.6.39,0,.53.11.59.5a4.25,4.25,0,0,0,.12.62c.12.42.27.49.69.36s.41-.09.64.21a.75.75,0,0,0,1,.29.85.85,0,0,1,.73,0,.53.53,0,0,0,.84-.26,1,1,0,0,1,1.17-.52c.45.09.49.07.68-.34a2.49,2.49,0,0,0,.11-.29.8.8,0,0,1,.62-.57.69.69,0,0,0,.31-.15c.15-.15.37-.29.36-.5s.11-.6,0-.9A4.74,4.74,0,0,0,162.92,155.84Zm4.73,4.43c-.28.1-.36.39-.62.43a.78.78,0,0,0-.69.75c-.07.4-.3.53-.71.51l-.36,0c-.4,0-.49.07-.63.44a3.65,3.65,0,0,1-.18.56.5.5,0,0,1-.89.11c-.49-.57-.45-.43-1-.22l0,0a.83.83,0,0,1-1.13-.46c-.09-.27-.21-.31-.46-.27a.63.63,0,0,1-.74-.43,2.13,2.13,0,0,1-.12-.61c-.05-.39-.26-.53-.62-.42-.15.05-.21.12-.15.3a2.93,2.93,0,0,0,.39.69,4.17,4.17,0,0,0,4,1.91,4.58,4.58,0,0,0,1.7-.54,4.33,4.33,0,0,0,1.8-1.43A2.72,2.72,0,0,0,167.65,160.27Zm-7.8-2.88c.2.09.32,0,.42-.15s.17-.17.09-.26-.19,0-.26.07A.62.62,0,0,0,159.85,157.39Z" transform="translate(-9.05 -11.18)"/>
      <path class="cls-7" d="M161.33,159.69a1,1,0,0,1,.28-.68,5.37,5.37,0,0,1,.62-.64,1.27,1.27,0,0,1,1.64-.11,2.79,2.79,0,0,1,1,1,1.11,1.11,0,0,1,.1.74,1.74,1.74,0,0,1-1.57,1.43,1.78,1.78,0,0,1-1.79-.75A1.58,1.58,0,0,1,161.33,159.69Zm1.64-.41a1.53,1.53,0,0,0-.3,0,1.11,1.11,0,0,0-.92.62.58.58,0,0,0,.06.63,1.58,1.58,0,0,0,2.49.21.49.49,0,0,0,.06-.78A1.57,1.57,0,0,0,163,159.28Zm1.78.72a1.25,1.25,0,0,0-.62-1.26,1.59,1.59,0,0,0-1.57-.34,1.47,1.47,0,0,0-.86,1.09A2.15,2.15,0,0,1,164.75,160Z" transform="translate(-9.05 -11.18)"/>
      <path class="cls-7" d="M166.45,158.89c0,.07,0,.12-.11.11s-.07-.05-.06-.1,0-.08.08-.08S166.44,158.84,166.45,158.89Z" transform="translate(-9.05 -11.18)"/>
      <path class="cls-7" d="M164.83,157.63s-.05.07-.09.07-.08,0-.08-.08a.16.16,0,0,1,.09-.09C164.8,157.52,164.83,157.56,164.83,157.63Z" transform="translate(-9.05 -11.18)"/>
      <path class="cls-7" d="M162.84,157.26c0,.07,0,.11-.07.09s-.08,0-.08-.08a.06.06,0,0,1,.07-.08S162.82,157.24,162.84,157.26Z" transform="translate(-9.05 -11.18)"/>
      <path class="cls-7" d="M165.72,160.64a.12.12,0,0,1-.11.11.08.08,0,0,1-.07-.09.16.16,0,0,1,.09-.09S165.7,160.59,165.72,160.64Z" transform="translate(-9.05 -11.18)"/>
      <path class="cls-7" d="M163.84,161.86s0,.08-.07.08-.08,0-.08-.07,0-.08.07-.08A.08.08,0,0,1,163.84,161.86Z" transform="translate(-9.05 -11.18)"/>
      <path class="cls-7" d="M160.3,159.33s-.07,0-.11,0a0,0,0,0,1,0-.07.14.14,0,0,1,.11,0S160.28,159.3,160.3,159.33Z" transform="translate(-9.05 -11.18)"/>
      <path class="cls-7" d="M161.13,158.28s-.09,0-.08-.07,0-.06.08-.05a.08.08,0,0,1,.07.09Z" transform="translate(-9.05 -11.18)"/>
    </g>
    <path class="cls-19" d="M164.51,178.22a18.54,18.54,0,0,0-1-5.23,12.13,12.13,0,0,0-1.5-3.12l-.09-.13.34.23c.31.21.68-.11.69-.43,0-1.88-2.84-1.9-3.88-2.89-.44-.42-1.07.27-.64.69l.05,0a2.55,2.55,0,0,0-1.49.41l-.72.16a.46.46,0,0,0-.32-.27,4.58,4.58,0,0,0-3.67,1.52,4.86,4.86,0,0,0-2.07,2.19.43.43,0,0,0-.51.23,8.28,8.28,0,0,0-.56,3.88,3.58,3.58,0,0,0,.34,2.67.48.48,0,0,0,.65.15l0,0a2.91,2.91,0,0,0,.43,1.29.45.45,0,0,0,.69.1c0,.2,0,.4,0,.6a.47.47,0,0,0,.82.3,5.23,5.23,0,0,0,.49-.82.49.49,0,0,0,.82-.2,18,18,0,0,0,.35-2.85l0-.14c-.08,1-.11,2-.11,3,0,.29,0,.58,0,.86a.48.48,0,0,0,.72.38c0,.46.08.92.14,1.38a.5.5,0,0,0,.74.38c0,.23-.09.45-.14.68a.47.47,0,0,0,.91.21c.07-.26.12-.53.17-.8.09-.52.17-1,.24-1.58a20.1,20.1,0,0,0,.21,2.58.47.47,0,0,0,.93,0,75.13,75.13,0,0,1,.59-7.94,21.92,21.92,0,0,0,.38-3.29,15.55,15.55,0,0,1,.62-1.6,18,18,0,0,1-.27,5.28c-.2,1.85-.15,3.71-.29,5.55-.06.61-.13,1.21-.22,1.81s.8.81.91.22a25.86,25.86,0,0,0,.3-3,37.57,37.57,0,0,1,.74-7.06c0,1.27,0,2.53,0,3.8a28.05,28.05,0,0,0-.24,6.85.47.47,0,0,0,.93,0c0-.1,0-.21,0-.32a.47.47,0,0,0,.51.17c0,.35.57.44.81.2,0,0,0,.07,0,.11a.47.47,0,0,0,.8.42,5,5,0,0,0,.72-1.11.4.4,0,0,0,.28-.32c0-.22.07-.44.1-.66A12.85,12.85,0,0,0,164.51,178.22ZM150.14,177a1.37,1.37,0,0,1-.13.2,2.67,2.67,0,0,1-.08-1.06.51.51,0,0,0,.35-.13C150.23,176.3,150.18,176.63,150.14,177Zm2.47-4.64a.46.46,0,0,0-.33.22,6.89,6.89,0,0,0-.67,1.59,2.64,2.64,0,0,1,0-.28c.11-.57.22-1.15.28-1.72a2.06,2.06,0,0,0,.12-.35.47.47,0,0,0,.56.05l.18-.16C152.71,171.89,152.66,172.11,152.61,172.33Zm0-1.78a1.31,1.31,0,0,1,.23-.58l.17-.09A2.7,2.7,0,0,1,152.58,170.55Zm1.92,1.36c-.09.34-.18.69-.26,1a8.77,8.77,0,0,0-.09-1.84c0-.15.07-.31.11-.47a1.34,1.34,0,0,0,.26-.09C154.53,171,154.52,171.45,154.5,171.91Zm1.17-.68q.11-.34.24-.69v.21Zm1.7,1.72a9.84,9.84,0,0,0,0-1.33c0-.08.08-.17.13-.26a4.17,4.17,0,0,1,.1.8C157.52,172.42,157.44,172.69,157.37,173Zm3.89-1.06c0-.35,0-.71,0-1.06a.47.47,0,0,0-.88-.21c-.1.19-.18.37-.27.56a5.64,5.64,0,0,0-.45-1.76.48.48,0,0,0-.87-.08c-.22.39-.41.79-.6,1.19A3.85,3.85,0,0,0,158,170a.48.48,0,0,0-.81,0l-.09.15a.57.57,0,0,0-.3-.23,4.54,4.54,0,0,0-.09-.51c1,.39,2.09-.44,2.93-.88a15.47,15.47,0,0,1,1.41,1.61,8.52,8.52,0,0,1,.83,1.36.35.35,0,0,0,0,.24,2.56,2.56,0,0,0,.11.24A.51.51,0,0,0,161.26,171.89Z" transform="translate(-9.05 -11.18)"/>
    <path class="cls-19" d="M160,175.35a19,19,0,0,0-.65,4.93,4.39,4.39,0,0,1-.58,1.19c.08-1.14.38-2.27.57-3.4a17.65,17.65,0,0,0,.18-2.41.42.42,0,0,0,.3-.41,12.27,12.27,0,0,0-.11-1.82.52.52,0,0,0-1,0c-.31,1.58-.15,3.2-.42,4.79a18.2,18.2,0,0,0-.51,4.47.52.52,0,0,0,.72.39,4.17,4.17,0,0,0,1-.88.41.41,0,0,0,0,.11c.08.65,1.1.49,1-.17a14.53,14.53,0,0,1-.12-1.62,16.15,16.15,0,0,0,.62-5C161,175.05,160.17,174.74,160,175.35Z" transform="translate(-9.05 -11.18)"/>
    <path class="cls-19" d="M160,170c-.57-.24-1,.63-.42.87a2.56,2.56,0,0,1,1.35,2.75.48.48,0,0,0,.95.19A3.52,3.52,0,0,0,160,170Z" transform="translate(-9.05 -11.18)"/>
    <path class="cls-19" d="M159.83,183.18c-3.13,1.13-5.9-1.3-8.75-2.2-.59-.18-1,.7-.4.89,3.14,1,6,3.48,9.47,2.23A.49.49,0,0,0,159.83,183.18Z" transform="translate(-9.05 -11.18)"/>
    <path class="cls-19" d="M159.47,184.1a29.84,29.84,0,0,1-7.73-2.8c-.66-.32-1.29.64-.62,1a31.15,31.15,0,0,0,8.29,3C160.15,185.38,160.2,184.22,159.47,184.1Z" transform="translate(-9.05 -11.18)"/>
    <path class="cls-19" d="M162,184.67c0,.11,0,.39-.15.38a2.6,2.6,0,0,1-.89-.3,6.09,6.09,0,0,0-1.63-.67c-.65-.1-.83.91-.18,1a17.76,17.76,0,0,1,2.23.92,1.21,1.21,0,0,0,1.63-1.15C163,184.2,162,184,162,184.67Z" transform="translate(-9.05 -11.18)"/>
    <path class="cls-19" d="M152.4,181c-1.48,0-1.88-2.76-2.32-3.81-.29-.7-1.36-.22-1.07.48.63,1.52,1.1,4.56,3.27,4.51C153,182.16,153.16,181,152.4,181Z" transform="translate(-9.05 -11.18)"/>
    <path class="cls-19" d="M158,174.7c0,.05,0,.1,0,.16a.4.4,0,0,0-.1.12,2.27,2.27,0,0,0-.28.88.63.63,0,0,0,.1.47c-.07.84-.13,1.68-.23,2.52-.07.61.93.91,1.18.33a5.89,5.89,0,0,0,.26-.7.67.67,0,0,0,.74-.59,9.92,9.92,0,0,0-.44-3.33C159.11,173.88,158,174,158,174.7Z" transform="translate(-9.05 -11.18)"/>
    <path class="cls-19" d="M154.37,181.54l0,0,0,0a.57.57,0,0,0,0-.58,3.32,3.32,0,0,0-1-1.15.64.64,0,0,0-.9.22h0c-.49-.4-1.13.23-.94.73a.64.64,0,0,0,.52.87,1.79,1.79,0,0,1,.94.56,3.56,3.56,0,0,0,1,.67c.55.22,1.15-.58.68-1Z" transform="translate(-9.05 -11.18)"/>
    <path class="cls-19" d="M161.37,183.36a.58.58,0,0,0-.46.14l-.14,0a.52.52,0,0,0-.31.67,2.16,2.16,0,0,0,.36.69.52.52,0,0,0,.6.19.51.51,0,0,0,.32-.61v-.09s0-.11,0-.14a1.28,1.28,0,0,0,.05-.27A.53.53,0,0,0,161.37,183.36Z" transform="translate(-9.05 -11.18)"/>
    <path class="cls-19" d="M160,172.06c-.84.57-.67,1.59-.62,2.46a.59.59,0,0,0,1.18-.06c0-.35-.21-1.21.09-1.41C161.31,172.61,160.66,171.62,160,172.06Z" transform="translate(-9.05 -11.18)"/>
    <g>
      <path class="cls-7" d="M148.1,179.25a7.32,7.32,0,0,1-.37-5.19,7.44,7.44,0,0,1,1.36-3c1.58-1.64,3.2-3.23,5.5-3.86a10.21,10.21,0,0,0,1-.38,6.73,6.73,0,0,1,7,1.57c1.52,1.56,1.94,3.43,2.32,5.37a24.25,24.25,0,0,1,.42,6.36,9.2,9.2,0,0,1-1.83,5.37,2.48,2.48,0,0,1-2.24,1,18.32,18.32,0,0,1-10.52-4.19A8.4,8.4,0,0,1,148.1,179.25Zm.32-1a9.73,9.73,0,0,0,3.9,4.49,19.12,19.12,0,0,0,8.44,3.05,2.47,2.47,0,0,0,2.69-1.29,8.46,8.46,0,0,0,1.16-3.19,23.93,23.93,0,0,0-.54-8.68,7.52,7.52,0,0,0-1.13-2.86,6.11,6.11,0,0,0-6.18-2.7,13.32,13.32,0,0,0-1.89.7,7.14,7.14,0,0,0-3.84,2.32,6.8,6.8,0,0,1-1.17,1.1,2.59,2.59,0,0,0-.56.63C148.06,173.93,147.46,176.12,148.42,178.24Z" transform="translate(-9.05 -11.18)"/>
      <path class="cls-7" d="M158.94,176.38a5.18,5.18,0,0,1,.46-4.25c.28-.46.69-.41,1.12-.41a.69.69,0,0,1,.74.63,7,7,0,0,1-.53,4.24,2,2,0,0,1-.31.43c-.46.48-.83.44-1.2-.12A5.89,5.89,0,0,1,158.94,176.38Z" transform="translate(-9.05 -11.18)"/>
      <path class="cls-7" d="M155.74,179.32c.31.68.13,1-.45,1.18a2.73,2.73,0,0,1-1.36-.12,4.66,4.66,0,0,1-2.75-1.88.94.94,0,0,1,.92-1.54A6.73,6.73,0,0,1,155.74,179.32Z" transform="translate(-9.05 -11.18)"/>
      <path class="cls-7" d="M160.75,180.74a.71.71,0,0,1,.75.78,2.22,2.22,0,0,1-.75,1.69,1.46,1.46,0,0,1-1.75-.46.31.31,0,0,1,.24-.4c.19-.07.34,0,.49.13s.59.28.86,0a1,1,0,0,0,.31-1.06A1,1,0,0,1,160.75,180.74Z" transform="translate(-9.05 -11.18)"/>
    </g>
    <path class="cls-11" d="M33.3,151.9a2.41,2.41,0,0,0-.08.25h0a.43.43,0,0,0-.62,0c-.08.08-.15.17-.22.25a.4.4,0,0,0-.54,0,3.91,3.91,0,0,0-.3.41.38.38,0,0,0-.47.08L31,153a.42.42,0,0,0-.44-.06c0-.16,0-.31.05-.46,0-.37-.47-.52-.7-.28a3.9,3.9,0,0,0-.4.51l0-.09a.41.41,0,0,0-.78,0c-.05.16-.1.31-.14.46a.38.38,0,0,0-.22.13c0-.21,0-.42,0-.63a.42.42,0,0,0-.76-.21v-.24a.4.4,0,0,0-.65-.31.43.43,0,0,0-.45-.07l0-.34c0-.42-.59-.53-.76-.21a.41.41,0,0,0-.62.23c0,.18-.07.36-.11.54a.35.35,0,0,0-.48.18c-.06.13-.11.27-.16.4a.4.4,0,0,0-.62.11,4.81,4.81,0,0,0-.4,1,.4.4,0,0,0-.78,0,6.91,6.91,0,0,0-.25.77l0-.12A.38.38,0,0,0,22,154v-.14c0-.32-.47-.58-.7-.28a3,3,0,0,0-.2.29c.09-.75.19-1.51.26-2.26a.42.42,0,0,0-.58-.37v-.47a.46.46,0,0,0-.35-.4c0-.2.07-.41.11-.61a.44.44,0,0,0-.58-.48,4.05,4.05,0,0,0,.14-1,.42.42,0,0,0-.35-.4l0-.16a.41.41,0,0,0-.69-.38l-.08.09c0-.11,0-.22-.05-.34a.42.42,0,0,0-.43-.3l0-.05a.42.42,0,0,0-.6-.25h0a.43.43,0,0,0-.51-.36v-.3c0-.31-.47-.59-.7-.28a.61.61,0,0,0-.07.1c-.12-.23-.45-.4-.65-.13a5.2,5.2,0,0,0-.59,1.15.4.4,0,0,0-.74.1s0,.08,0,.12c-.71.22-.88,1.69-.48,2.21.15.19.47.31.65.08a2.76,2.76,0,0,0,.36-.65.22.22,0,0,0,.09-.07,2.73,2.73,0,0,0,.57-.87.42.42,0,0,0,.76.1,2.55,2.55,0,0,0,.17-.33.4.4,0,0,0,.41,0,.42.42,0,0,0,.58.17l.13-.07a.46.46,0,0,0,.36.39,5.29,5.29,0,0,1,0,.89c-.05.33.27.43.52.35,0,.13,0,.25,0,.38a.4.4,0,0,0,.29.38,3.65,3.65,0,0,0-.09,2.26.48.48,0,0,0,.38.29c0,.21,0,.43,0,.65a.37.37,0,0,0,.43.39,14.38,14.38,0,0,0-.22,2.17.41.41,0,0,0,.64.33,12.36,12.36,0,0,0,0,1.36.41.41,0,0,0,.8.1s0-.1,0-.15a.48.48,0,0,0,.42.24,7,7,0,0,0-.08,1,.41.41,0,0,0,.8.09c.06-.15.1-.32.15-.48,0,.14,0,.28,0,.42a.4.4,0,0,0,.69.27.47.47,0,0,0,.38.16c0,.08,0,.17,0,.26,0,.41.63.56.78.19,0,.25,0,.5,0,.75a.4.4,0,0,0,.72.24.44.44,0,0,0,.37,0,.42.42,0,0,0,.7.1.4.4,0,0,0,.65-.31c.07-.68.12-1.36.17-2a18.82,18.82,0,0,0,0,2.49.41.41,0,0,0,.82,0c0-.11,0-.21,0-.32a.37.37,0,0,0,.46-.36.37.37,0,0,0,.52-.26c0-.14.07-.29.1-.43a.42.42,0,0,0,.55-.38.34.34,0,0,0,0-.1.42.42,0,0,0,.54.36c.07.4.7.52.78,0,.05-.3.1-.59.14-.89a.35.35,0,0,0,.34-.3c0-.16.05-.32.07-.49s.1-.47.16-.7a.4.4,0,0,0,.59-.24c0-.1.05-.19.07-.29a.43.43,0,0,0,.68-.06,6.63,6.63,0,0,0,.53-1.67.39.39,0,0,0,.26-.27c.08-.23.15-.46.23-.69a10,10,0,0,0,.47-1.43A.4.4,0,0,0,33.3,151.9Zm-6.47,4.61-.06.6.06-.84Z" transform="translate(-9.05 -11.18)"/>
    <g>
      <path class="cls-7" d="M30.17,176.22a5.53,5.53,0,0,1,1.37-1.52,1,1,0,0,0,.31-1.23c-.6-1.77-1.15-3.56-1.73-5.34a6.08,6.08,0,0,0-.21-.6c-.13-.33-.34-.45-.65-.23l-1.55,1.12c-.35.26-.3.53,0,.79a5.59,5.59,0,0,0,.66.52c.18.12.38.2.55.33.74.57.71.91-.11,1.4a3,3,0,0,1-.46.26c-.67.28-.86.19-1.08-.5-.16-.54-.31-1.09-.5-1.62a.8.8,0,0,1,.35-1.08c.61-.41,1.17-.9,1.75-1.36a1.25,1.25,0,0,0,.41-1.51c-.41-1.32-.75-2.66-1.12-4-.23-.8-.33-.86-1.12-.64a5.88,5.88,0,0,1-7.16-3.41,10.52,10.52,0,0,1-1-4.3,19.57,19.57,0,0,0-.46-4.32,1,1,0,0,0-1.88-.53c-.28.27-.5.6-.79.86a1.6,1.6,0,0,0-.52,1.22A7.25,7.25,0,0,1,15,153c-.07.16,0,.36-.27.45s-.39-.35-.49-.6a6.53,6.53,0,0,1-.52-2.26,6.3,6.3,0,0,0-.3-1.66,3.09,3.09,0,0,1,1.46-3.34,5,5,0,0,1,6.91,3.4c.16,1,.34,2,.42,2.94.05.57.21.62.65.27a16.43,16.43,0,0,1,2-1.42c1.48-.87,2.85-.51,4.25.13a.47.47,0,0,1,.09.06c1.92,1.12,1.92,1.28,4.16-.27.26-.18.49-.41.76-.57.43-.26.7-.13.68.37a7.22,7.22,0,0,1-.74,3.28,24.62,24.62,0,0,1-3.47,4.93c-.78.84-.78.89-.09,1.78s1.31,1.66,2,2.48.63.73-.1,1.42-1.23,1.17-1.87,1.73a.83.83,0,0,0-.29,1c.59,1.78,1.13,3.57,1.71,5.36a5.51,5.51,0,0,0,.57,1.37,3.61,3.61,0,0,1,.19,2.68c-.08.56-.36.67-.92.45S30.77,176.49,30.17,176.22Zm4-25.34c-.62.16-1,.63-1.53.81A2.25,2.25,0,0,0,31,153.91a1.68,1.68,0,0,1-1.36,1.7c-.56.09-1,.19-1.25.78a.54.54,0,0,1-.55.26A3.36,3.36,0,0,0,25,157.73c-.81.8-1.66.27-1.73-1,.42.32.53,1.06,1.22.85.85-.27.93-1,1.06-1.76.48,0,.77.31,1.14.42.92.25,1.31,0,1.5-.9a.55.55,0,0,1,.23-.42L29,155a1,1,0,0,0,1.14-.36,3,3,0,0,0,.45-2c0-.6-.59-.64-.92-.92a4.88,4.88,0,0,0-.73-.44,3.93,3.93,0,0,0-4.49.14,5.77,5.77,0,0,0-1.86,1.85c-.09.16-.19.34-.38.32s-.3-.26-.33-.47c-.06-.49-.12-1-.15-1.48a14.19,14.19,0,0,0-.49-3c-.66-2.29-4.08-4.26-6.65-2.31a2.23,2.23,0,0,0-.91,1.92,1.16,1.16,0,0,0,.65,1.13,1.06,1.06,0,0,0,1.26-.27,9.55,9.55,0,0,0,.82-1,1.2,1.2,0,0,1,.88-.52,1.24,1.24,0,0,1,1.53,1.1,24.25,24.25,0,0,1,.51,5,8.07,8.07,0,0,0,1.38,4.4c1.65,2.51,3.87,3.37,6.57,2.39a8.25,8.25,0,0,0,3.23-2.16,21.06,21.06,0,0,0,3.11-4.41A4.32,4.32,0,0,0,34.2,150.88ZM29.45,165c.39,1.06.47,1.1,1,.61s1-.92,1.43-1.39A.77.77,0,0,0,32,163c-.72-.91-1.45-1.81-2.18-2.71-.28-.35-.59-.3-.94-.13s-.58.39-.47.83C28.79,162.45,29.16,163.88,29.45,165Zm2.36,10.22c-.19.23-.71.29-.63.78,0,.25.66.52.88.42a1.37,1.37,0,0,0,.25-1.17C32.2,175,32,175.06,31.81,175.18ZM27.66,170a.87.87,0,0,0,0,.74c.06.22.1.5.43.48a.66.66,0,0,0,.57-.39c.15-.31-.11-.44-.3-.56A1,1,0,0,0,27.66,170Z" transform="translate(-9.05 -11.18)"/>
      <path class="cls-7" d="M14.61,147.56c.53-.07.93-.24.85-.81a.39.39,0,0,1,.25-.12.35.35,0,0,1,.2.21.77.77,0,0,1-.32.83C15.32,147.85,15,148.05,14.61,147.56Z" transform="translate(-9.05 -11.18)"/>
    </g>
    <path class="cls-1" d="M35.08,186.89a1.85,1.85,0,0,0,1.38.82.39.39,0,0,0,0-.77,1.14,1.14,0,0,1-.41-.15,1.82,1.82,0,0,1-.23-.15l-.06-.06s-.08-.11,0,0a.39.39,0,0,0-.52-.17.39.39,0,0,0-.17.52Z" transform="translate(-9.05 -11.18)"/>
    <path class="cls-1" d="M26.09,186.84l-.38-.34-.21.64c1.45-.39,1.42-2.38,1.56-3.66l-.73.15c.38.74.69,1.82,1.59,2.07a.39.39,0,0,0,.46-.55l-.19-.43-.27.55c.35,0,.69.14,1,0,.57-.16.72-.7,1.24-.95l-.56-.37c0,1.44-.57,2.85.72,4a1.38,1.38,0,0,0,2.28-.4c.26-.39-.24-.73-.58-.49a14.82,14.82,0,0,1-1.55,1.19c-.51.25-1,1.09-1.35-.45a2.74,2.74,0,0,1,.94-2l-.6-.11.18.6.5-.34c-1.1-.33-2-1.08-3.05-1.43a.38.38,0,0,0-.24.73,5.69,5.69,0,0,0,2.53.36l0-.76a6.28,6.28,0,0,1-2.66,0,.37.37,0,0,0-.35.17c-1,1.72.19,3.78.62,5.4l.67-.34c-.65-.93-.11-2.68-1.3-3.22-.29-.13-.54.18-.51.44a6.39,6.39,0,0,0,1.51,2.86.39.39,0,0,0,.67-.34c-.24-1.16-.9-3.3-.56-4.5l-.57.21c1.15.87,1.1,3.55,1.34,4.8l.76-.15a10.46,10.46,0,0,1,.09-3.74l-.67.23a12.81,12.81,0,0,1,1.1,2.11c.2.42.76.16.72-.25-.06-.78-.3-1.5-.42-2.26l-.67.33a7.36,7.36,0,0,1,1,1.87l.47-.54c-1.14-.43-1.11-2.11-2.37-2.55a.39.39,0,0,0-.46.54c.35.88,1.17,1.84,1.25,2.8l.5-.44c-.82-.22-1.3-1.19-1.8-1.81a.39.39,0,0,0-.67.34,7,7,0,0,1,.61,3.21l.77-.06-.08-.25a.39.39,0,0,0-.76.15c.2,1.15-3.09-.39-3-.29l-.56.5.49.35-.05-.61c-.56.47-1.51,1.41-2.36,1.29-.47-.07-.5.58-.14.75,1.83.88.49,2.46,2.55,2.58a7.33,7.33,0,0,1,3.07.88,5.35,5.35,0,0,0,1.35.63,1.6,1.6,0,0,0,1.16-.3,10.9,10.9,0,0,1,2.59-1.4c.84-.22,2.24-.28,2.85-1s.21-1.69.3-2.5c.1-1,1.36-2.19,1.24-3.16a1.64,1.64,0,0,0-.26-.57c0-.08-.22-.07-.27-.14a3.52,3.52,0,0,1-.86-1.91c0-.25-.29-.55-.56-.37a3.67,3.67,0,0,1-2.27.63.4.4,0,0,0-.39.26,6.25,6.25,0,0,1-1,2.78A7.6,7.6,0,0,1,28.54,190l.35.69a14.74,14.74,0,0,0,2.76-1.84c.24-.25.06-.8-.34-.67a11.77,11.77,0,0,0-2.92,1.24c-.41.27-.07,1,.35.69A11.46,11.46,0,0,1,31.46,189l-.33-.67A13,13,0,0,1,28.54,190c-.41.26-.1.92.35.69,1.3-.64,3.06-1.09,3.64-2.54.32-.81.17-1.76,1-2.1s.9-.08,1.9-.75l-.56-.37c0,.71-.1,1.58.42,2.16-.14-.15.88.59.83.47.19.49-.58,1.39-.75,1.78a3.94,3.94,0,0,0-.37,2.16c.15,2-1.84,1.69-3.3,2.19-.43.15-.76.38-1.18.55a2.8,2.8,0,0,0-.46.39,2.77,2.77,0,0,1-2.66-.27,7.73,7.73,0,0,0-2.59-.73c-1.13,0-.61.1-.92-.74a3.43,3.43,0,0,0-1.72-1.76l-.15.75c1.09.15,2.16-.83,2.93-1.49a.39.39,0,0,0-.05-.61l-.49-.35c-.29-.21-.77.18-.55.5.8,1.18,4.88,2.13,4.47-.21l-.76.15.08.26a.39.39,0,0,0,.77-.06c.22-1.23-.31-2.24-.63-3.4l-.66.33c.62.78,1.11,1.75,2.13,2a.39.39,0,0,0,.5-.44c-.09-1.07-.93-2-1.32-3l-.47.55c1.11.38,1.2,2.1,2.36,2.55.35.13.58-.26.47-.55a8.63,8.63,0,0,0-1.07-2c-.24-.33-.72,0-.67.34.12.77.36,1.49.42,2.26l.73-.25A12.79,12.79,0,0,0,29,186.18c-.22-.29-.62-.05-.67.24a10.46,10.46,0,0,0-.08,3.94.39.39,0,0,0,.76-.15c-.32-1.67-.17-4.16-1.68-5.3a.39.39,0,0,0-.58.2c-.42,1.44.24,3.49.53,4.9l.67-.34a6,6,0,0,1-1.33-2.49l-.5.44c.58.27.53,2.37,1,3,.22.32.76,0,.67-.34-.16-.61-.51-1.08-.72-1.67a5.64,5.64,0,0,1-.13-2.63c.24-.34,1.92-.18,2.63-.36.4-.11.41-.77-.05-.77a5.48,5.48,0,0,1-2.34-.32l-.24.73c1.07.35,1.94,1.1,3.05,1.43a.39.39,0,0,0,.51-.34,1.33,1.33,0,0,0-.26-1,.4.4,0,0,0-.61-.11c-.86.72-2,3.3-.73,4.18s2.89-1.19,3.73-1.77l-.59-.5c-.94.32-1.48.12-1.61-.59a2,2,0,0,1-.08-1.56c0-.33.11-.62.11-1a.39.39,0,0,0-.56-.37,6,6,0,0,1-2.06.83.4.4,0,0,0-.27.56l.19.43.47-.54c-.61-.17-.87-1.15-1.14-1.68a.39.39,0,0,0-.73.15c0,.39-.27,2.77-.94,2.95-.26.07-.45.43-.21.64l.38.34c.37.33.95-.18.57-.52Z" transform="translate(-9.05 -11.18)"/>
    <path class="cls-1" d="M26.79,189.92c-.41.15-.68.36-1.07.54-1.39.63-1,.16-1.82.41a5,5,0,0,1-.76.29l.15.74c.39-.23,1.46-1,1.88-.8l-.05-.72c-.57.37-1.66.39-1.88,1.18s.44,1.79.7,2.39c.17.38.69.2.73-.15s-.26-1.9-.7-1.8a4.92,4.92,0,0,0,1,2.3.4.4,0,0,0,.6-.3c.06-.55-.67-1.78-.3-2.14l-.55,0c.67.78.25,2.1,1.46,2.32.32.06.48-.32.38-.56-.41-.94-.9-1.58.51-2.24.32-.15.88-.18,1.24-.31a10.51,10.51,0,0,0,3.62-2.16,7.2,7.2,0,0,0,.78-1l.66-1c.64-.53,1-.5,1.2.09.53.43.59,1,1.33,1.29a.4.4,0,0,0,.51-.45A6.57,6.57,0,0,0,35,185.37a.4.4,0,0,0-.62,0c-2,2.58-4.69,7.57-8.74,6.44l.05.71a22.79,22.79,0,0,0,3-1.12c1-.6,1.89-1.33,2.86-1.95l-.43-.64c-1.71,1.28-3.72,3.51-6.14,2.84l.14.65c1.28-1.32,1.47,2,2.22,2.54a1.58,1.58,0,0,0,1.7.08c.35-.12.23-.6-.05-.71s-2.95-.79-2.62-1.2l-.54.11c.88.74,1.93,2.32,3.3,2.07.78-.14,1.44-.93,2.13-1.28,1.09-.56,2.35-.75,3.48-1.23l-.5-.55c-.6.86-2.34.9-3.3,1.14s-2.74.94-3.7,0l0,.55c1-1.09,2.41-1.82,3.44-2.93,1.24-1.33,1.94-3,3.64-3.85l-.54-.47c-.47,1.21-2.7,2.41-3.67,3-1.31.78-2.66,1.47-4,2.14a.39.39,0,0,0,.25.73l1.3.48.27-.55a1.61,1.61,0,0,0-1.21.5.39.39,0,0,0,.05.61c1.49,1.21,3.5-.26,4.47-1.39s1.54-2.12,2.33-3.17c.62-.83,1.18-.44,2.26-.34a.39.39,0,0,0,.23-.71,6.33,6.33,0,0,0-1.59-.92.39.39,0,0,0-.5.44c.19.75.9.87,1.08,1.46a10.4,10.4,0,0,1-.82,2.6c-.33.86-.53.68-1.47.93-.54.14-1.14.4-1.65.56s-2.38,1.13-2-.29c.13-.45,1.84-1.51,2.24-1.9l-.59-.5a6.85,6.85,0,0,1-1.93,2.22c-.35.25.07.88.43.63a7.63,7.63,0,0,0,1.9-1.86c.65-.86,3.27-3.87,2.9-1-.17,1.41-1,1.9-2.26,2.4a6.19,6.19,0,0,1-1.25.44l-1.2-.36s-.69-.19-.66-.19l.05.77c1.53-.51,2.49-.16,3.52-1.62.37-.51.67-1.8,1.2-2.1.84-.47,0,1.46-.22,1.78a4.2,4.2,0,0,1-2,1.16l.4.59c.61-1,1.24-2.85,2.21-3.54l-.64-.31c0,.62,0,2.13-.65,2.15s-.55.79-.05.77l.2,0a.4.4,0,0,0,.45-.16,4.11,4.11,0,0,0,.82-2.75.4.4,0,0,0-.65-.32c-1.09.78-1.66,2.57-2.34,3.7-.15.26.07.71.41.59a4.87,4.87,0,0,0,2.95-2.13c.33-.65.59-1.95,0-2.54-.43-.42-.74-.31-1.17.06-.62.51-.83,1.49-1.27,2.13-.81,1.16-2.09,1.33-3.31,1.74a.39.39,0,0,0,.05.77c.59.08.92.55,1.57.58a5.33,5.33,0,0,0,2.15-.66c2-.81,2.48-1.71,2.78-4,.15-1.11-.47-1.38-1.57-1.16-2.17.43-3,3.11-4.66,4.25l.44.63a6.82,6.82,0,0,0,2.06-2.37c.21-.36-.26-.83-.58-.5-.61.61-4.29,2.65-2.44,4,.46.32,1.13.05,1.61-.07a32.11,32.11,0,0,1,4.6-1.21.41.41,0,0,0,.31-.36,6.56,6.56,0,0,1,.43-2.35,5.85,5.85,0,0,0,.54-1.31c0-1-1-.64-1.19-1.59l-.5.44a5.43,5.43,0,0,1,1.41.84l.24-.71c-1.13-.11-1.89-.67-2.68.22-.64.71-1.09,1.7-1.67,2.47-.76,1-2.77,3.61-4.34,2.33l.05.61a1.07,1.07,0,0,1,.84-.31.39.39,0,0,0,.27-.56,1.93,1.93,0,0,0-2.14-.89l.25.73A39.94,39.94,0,0,0,32,189.33c.88-.63,2.18-1.47,2.58-2.51a.39.39,0,0,0-.54-.47c-1.51.73-2.1,1.84-3.09,3.13-1.2,1.55-2.9,2.39-4.16,3.78a.38.38,0,0,0,0,.54c1.11,1.12,2.64.74,4,.39s3.31-.32,4.19-1.59c.24-.34-.16-.7-.49-.56-.77.32-1.54.5-2.32.77s-1.49.8-2.26,1.12c-1.91.77-2.34-.38-3.56-1.41a.4.4,0,0,0-.54.12c-1.22,1.49,2.27,2.05,3,2.35l-.06-.71c-.27.1-1.41-1.43-1.55-1.71s-.1-.48-.22-.7a1.18,1.18,0,0,0-.45-.62,1.76,1.76,0,0,0-1.87.53.39.39,0,0,0,.14.65c2.86.8,4.88-1.48,6.9-3,.34-.26-.07-.87-.44-.64-1,.63-1.89,1.35-2.86,2a20.93,20.93,0,0,1-3,1.12.39.39,0,0,0,0,.71c4.5,1.26,7.41-3.87,9.63-6.75l-.61,0A10.28,10.28,0,0,1,35.66,188l.5-.44c-1-.36-1-2.1-2.2-2.05-.41,0-.73.4-1,.65-1,1-1.41,2.18-2.73,3a10.71,10.71,0,0,1-3.62,1.45,1.6,1.6,0,0,0-1.14.55c-.55.8.06,2,.38,2.77l.37-.56c-.31-.06-.62-1.7-.93-2.07a.38.38,0,0,0-.55,0c-1,1,.18,1.55,0,2.67l.6-.3c-.64-.44-.16-2.86-1.65-2.32-1.33.49.24,1.74.15,2.42l.73-.15c-.66-1.5-.36-1.74.84-2.53a.39.39,0,0,0-.06-.71c-.74-.28-1.86.49-2.46.85a.39.39,0,0,0,.15.73c.26.05.32,0,.53-.05s.22-.25.34-.26.24.12.43.1c1.11-.09,1.66-.73,2.73-1.12.47-.17.12-.86-.34-.69Z" transform="translate(-9.05 -11.18)"/>
    <path class="cls-5" d="M34,198.18c-.66-1.33-1.29-2.67-2-4a.2.2,0,0,0-.26-.08c-.95.55-1.72,1.34-2.67,1.9-.77.46-.9-.39-1.46-.8-1.37-1-3.26-.54-4.68-1.45l-.07.35c2.1-.67-.74-2.49-1.14-3.33l-.23.27c1.28.47,3.15-.21,2.6-1.84l-.2.23c.51.06.9.47,1.39.61a14.8,14.8,0,0,0,1.49.19.21.21,0,0,0,.21-.18c.27-1.57-1.3-3.12-2.46-3.94l-.17.35c2.08.74,1.73-2.21,2.2-3.35l-.29.1c.6.5.92,1.34,1.76,1.49a2.56,2.56,0,0,0,2.13-1l-.3-.06c.87,1.43-.44,3.65,1.69,4.31a.22.22,0,0,0,.23-.07,6.29,6.29,0,0,0,1-2.82l-.3.15c1.25,1,2.23,0,3.19-.85l-.32-.11c.28.84-.23,2.32.68,2.92a.82.82,0,0,0,.34.12c.29.08.47-.1.55.2s-.35.77-.42.92c-.23.5-.48,1-.72,1.48a3.08,3.08,0,0,0-.42,2.51c0,.11.3.53.27.64s-1,.32-1.22.38c-.83.24-1.54.76-2.38,1-.24.06-.16.44.08.38a15.81,15.81,0,0,0,1.84-.81c.66-.27,1.38-.37,2.05-.61a.19.19,0,0,0,.09-.26,2.76,2.76,0,0,1-.11-2.75c.48-1,1-2,1.44-3.06a.2.2,0,0,0-.13-.24c-.71-.27-1.28-.13-1.42-1.13a10.24,10.24,0,0,0-.14-1.75.19.19,0,0,0-.32-.11c-.8.74-1.62,1.67-2.72.81a.2.2,0,0,0-.3.15,7.52,7.52,0,0,1-.58,2c-.12.26-.16.5-.42.5-.5,0-.75-.76-.83-1.13-.2-1,.15-2-.38-2.91a.2.2,0,0,0-.31-.06c-.68.74-1.59,1.36-2.51.51-.34-.31-.55-.7-.91-1a.2.2,0,0,0-.29.1c-.38.94-.1,3.68-1.71,3.11a.2.2,0,0,0-.17.35c1.06.74,2.54,2.16,2.29,3.58l.21-.18a5.25,5.25,0,0,1-2-.47,1.7,1.7,0,0,0-.84-.32.2.2,0,0,0-.21.23c.46,1.35-1.1,1.76-2.1,1.39a.2.2,0,0,0-.24.27c.28.6,2.73,2.36,1.41,2.78a.2.2,0,0,0-.06.36,7.79,7.79,0,0,0,3,.85,2.76,2.76,0,0,1,2.18,1.21c.11.21.05.34.31.47.72.36,1.95-.87,2.42-1.25.17-.13.78-.77,1-.75s.57.78.71,1.05c.45.89.88,1.78,1.32,2.66a.19.19,0,0,0,.34-.17Z" transform="translate(-9.05 -11.18)"/>
    <path class="cls-1" d="M26.85,186.67c.32.08.64.18,1,.28a.39.39,0,0,0,.24-.74l-.95-.28a.4.4,0,0,0-.49.25.39.39,0,0,0,.24.49Z" transform="translate(-9.05 -11.18)"/>
    <path class="cls-1" d="M30.74,193.68a6,6,0,0,0,3.14-3.25,9.25,9.25,0,0,1,.82-2.16,1.84,1.84,0,0,0,.3-1.36.39.39,0,0,0-.75,0c-.37,1.28-1.33,2.17-1.9,3.34-.23.49-.41.93.11,1.26l-.05-.61c-1,.72-2.21,1.06-2.89,2.14a.4.4,0,0,0,.12.54c1.54,1,1.08-3.26,1-3.74l-.51.44c.53.12,1.05.23,1.58.33s1.68.05,2,.37l.31-.65a5.1,5.1,0,0,0-1.51.09.39.39,0,0,0,.15.76,4.79,4.79,0,0,1,1.31-.08.39.39,0,0,0,.32-.64,1.2,1.2,0,0,0-.86-.38c-1-.17-2-.31-3-.54a.4.4,0,0,0-.5.45c0,.3-.2,2.7.16,2.94l.11.53c.61-1,1.86-1.32,2.76-2a.38.38,0,0,0,0-.61A26.46,26.46,0,0,0,35,187.1l-.75,0c.13.6-.8,1.83-1,2.45a3.9,3.9,0,0,1-1.14,2.24A10.58,10.58,0,0,1,30.39,193c-.43.24-.09.94.35.69Z" transform="translate(-9.05 -11.18)"/>
    <path class="cls-1" d="M73.17,49.67c-.06-.06,0-.13-.07-.23l-.49,1.2c.07,0,.39-.25.33-.18.13,0,.12,0,0,0a.61.61,0,0,1-.26-.08.53.53,0,0,1-.28-.36,1.16,1.16,0,0,1,0,.18c0-.19,0,.27,0,.31l1.07-1.06a5.77,5.77,0,0,1-.72,0h-.21c.12,0,.11,0,0,0s0,.09-.08,0a.39.39,0,0,1,.22.29q0-.16,0,0c0,.07.08-.07,0,0s-.08.09,0,0a.16.16,0,0,1-.12.08c-.18,0,.36,0,0,0,.06,0,.29,0,.1,0l.18,0c-.1,0-.1,0,0,0s0-.1.07.07c-.16-.28.11.34,0,0a1.8,1.8,0,0,0,.06.22c.09.18,0-.23,0,0s0-.29,0,0a.38.38,0,0,1,.13-.23c-.19.15.19-.14,0,0L73,49.9c.25-.16.09,0,0,0s-.24,0,.05,0h-.45c-.19,0,.24.07,0,0l-.21-.06c-.17,0-.09,0,0,0a.56.56,0,0,0-.2-.11c-.17-.05.16.15,0,0s.09.17,0,0,.09.25,0,.08,0-.07,0,.14c0-.11,0-.07,0,.13,0-.1.11-.18,0,0,.16-.24-.1.09,0-.07a1.09,1.09,0,0,0,0-1.5,1.07,1.07,0,0,0-1.5,0,1.86,1.86,0,0,0,.32,2.94,3.17,3.17,0,0,0,2.67.31,2,2,0,0,0,1-2.92A2.38,2.38,0,0,0,71,48.31,2,2,0,0,0,71.11,51a3.14,3.14,0,0,0,2.37.57,1.1,1.1,0,0,0,1.06-1.07,2.09,2.09,0,0,0-.81-2,2.15,2.15,0,0,0-2.19.29,1.1,1.1,0,0,0-.48,1.2,2.3,2.3,0,0,0,.61,1.16c.94,1,2.44-.5,1.5-1.5Z" transform="translate(-9.05 -11.18)"/>
    <path class="cls-9" d="M73.5,48.2A1.92,1.92,0,0,1,75,49.74a1.19,1.19,0,0,1-.89,1.61,3.54,3.54,0,0,1-2.85,0,1.65,1.65,0,0,1-.09-2.88,5.36,5.36,0,0,1,2.77-.56.27.27,0,0,0,0-.53c-1.33,0-3.22.16-3.88,1.54A2.18,2.18,0,0,0,71.44,52c1.09.37,3.08.18,3.86-.77,1-1.26-.32-3.28-1.66-3.57-.33-.08-.47.44-.14.51Z" transform="translate(-9.05 -11.18)"/>
    <path class="cls-5" d="M170.12,148.31c.27-2.72.6-5.47.77-8.27a47.18,47.18,0,0,0-.82-11l-.06-.3a67,67,0,0,0-3-11c-.28-.75-.58-1.46-.88-2.16l-.07-2.54-.35-1.59a34.18,34.18,0,0,0-1.31-5L163.7,105c-.24-.5-.51-1-.82-1.52-1.32-2.13-2.77-4.21-4.24-6.24l-1.17-1.59-.1-.14c-.25-.34-.5-.7-.75-1a43.79,43.79,0,0,0-3-3.47l-1.54-1.58a87.57,87.57,0,0,0-7.71-6.67l-2.07-1.59c-1.53-1.15-3.05-2.26-4.51-3.31-.85-.61-1.82-1.21-2.83-1.8l-3-1.59a48.43,48.43,0,0,0-6.62-2.59l-1.59-.46a34.14,34.14,0,0,0-8.49-1.25,19.85,19.85,0,0,0-2.2.13q-.39-.9-.78-1.71L108.71,65c1.87-1.87,3.52-18,3.52-18q.12-1.54.24-3l.1-.11c.89-1.56.4-2.92.81-3.72.18-.67,1.09-.79,1.91-1.9V34.9a.78.78,0,0,0-.37-.13c-.8,0-1.54-.11-2.27-.2a26.85,26.85,0,0,0-1.75-6.84.77.77,0,0,0,0-.71c-1.73-3.54-2.45-7.94-5.74-11.12a14.56,14.56,0,0,0-1.92-1.52l-3-1.59a22.13,22.13,0,0,0-6.09-1.48A25.69,25.69,0,0,0,81,13.45l-.6.28-1.59.79c-3.77,2-6.45,4.46-7.4,9.14a90.84,90.84,0,0,0-1.59,19,.79.79,0,0,0,.21.54,10.28,10.28,0,0,0-1,4.13,6.47,6.47,0,0,0,4.74,6.25.86.86,0,0,0,.27.05s.07,0,.11,0c.65,1.46,1.45,2.8,2,4.08h0a8.46,8.46,0,0,0,1,2.25.81.81,0,0,0-.22.55h0v.17a22.13,22.13,0,0,1-.6,4.66.9.9,0,0,0-.5-.26,13.61,13.61,0,0,0-1.39-.07,8.09,8.09,0,0,0-6.94,3.29,6.56,6.56,0,0,0-.72.67l-1.59,2.4a7.12,7.12,0,0,0-.34.87s0,.07,0,.11c-1.51.82-2.93,1.69-4.21,2.43-.69.39-1.35.76-1.94,1l-1.59.7c-2.36,1-4.84,1.91-7.29,3l-1.59.78c-.46.23-.92.44-1.37.69-.64.36-1.24.72-1.86,1.08l-1.59.92c-1,.63-2,1.26-3,1.91L30,93.16c-.79.61-1.58,1.22-2.37,1.86l0,0L26,96.31a28.25,28.25,0,0,0-4.07,3.8l-2.05,1.94a7,7,0,0,0-.48.6l-.7,1.59c-.34,1.12-.44,2.23-.72,3.15a3.22,3.22,0,0,1-.14.44,5.71,5.71,0,0,1-.73,1.35c-.21.32-.42.63-.66.95l-1.06,1.58a8.75,8.75,0,0,0-.52,1,8.52,8.52,0,0,0-.47,2.13l-.08.54a4.79,4.79,0,0,1-.29,1.3,4.26,4.26,0,0,1-.88,1.38c-1,1.09-2.37,2.07-3.16,3.68a5.1,5.1,0,0,0-.36,2.06c0,.56,0,1.1,0,1.58v.34a27.9,27.9,0,0,1-.57,3.14l0,1.59a3.27,3.27,0,0,0,1.17,2,8.77,8.77,0,0,0,2.66,1.36c-.17.75-.34,1.5-.48,2.29a66.34,66.34,0,0,0-1,11.31c0,.1,0,.2,0,.31a47.27,47.27,0,0,0,1.15,10.94c.66,2.72,1.48,5.37,2.23,8l.44,1.59c.42,1.56.78,3.12,1.06,4.69,0,.32.09.63.14.95a28.54,28.54,0,0,1,.34,4.14,19,19,0,0,0,.77,4.84l1.4,3.89a102.2,102.2,0,0,0,5,9.75c1.89,3.4,3.64,6.74,5.52,10,.59,1,1.18,2.07,1.81,3.09l1,1.59c.52.81,1,1.63,1.58,2.44,1.54,2.22,3.17,4.3,4.83,6.35-1.35,2.11-2.11,6.67-2.17,9.47a7.73,7.73,0,0,0,.07,1.12s0,0,0,.06l.9.62.52,0a.7.7,0,0,0-.09.35h0v1l0,1.59c-.09,4.23-.32,8.63-.32,13,0,1.52,0,3,.12,4.54-.26,3.17-.51,6.33-.65,9.44-.47,9.72,1.91,19,2.47,28.65.3,5.21.62,10.24.64,15.56,0,6.22-2.19,10-3.68,15.69A53.49,53.49,0,0,0,35.14,335c-.3,3.73-.48,7.49-.48,11.26q0,3,.16,6.08c0,.25,0,.5.06.75A306.46,306.46,0,0,0,33,384a92.37,92.37,0,0,0-1.61,12.28c-.11,2.45-.31,5-.31,7.57,0,.91,0,1.82.09,2.74a.79.79,0,0,0,.55.7h.09c-.13.39-.31.88-.52,1.43-.53,1.34-1.25,3-2,4.69-.25.58-.51,1.15-.77,1.71-1.2,2.66-2.31,5.08-2.66,6.18a28.73,28.73,0,0,0-1.22,8.09c0,2.37.35,4.66,1.54,6.26,1.8,2.3,5.16,2.72,8.4,2.75,2.78,0,5.57-.38,7.36-.54,5-.47,9.29-.19,12.47-5.09,1.62-2.51,2.18-5.15,3.41-7.4.87-1.67,2.72-3.05,4-5a8,8,0,0,0,.61-1.07,3.85,3.85,0,0,0,.87-.15c2.21-.66,2.89-3.3,2.89-5.47,0,0,0-.09,0-.14a11.6,11.6,0,0,0-.14-1.58.79.79,0,0,0,0-.3,8.77,8.77,0,0,0-.38-1.39c-.08-.19-.17-.36-.26-.53a3.16,3.16,0,0,0,1.91-1.29c1.15-1.75,1.28-5.77,1.62-7.39.61-3.36.81-6.68,1.13-10,.71-7.54.23-15.16,1.14-22.51,1.13-9.22,2.25-18.29,2.25-27.72a121.14,121.14,0,0,1,1.34-20.34c1.21-7.31,4.36-13.88,6.48-21.1a24.37,24.37,0,0,0,.78-6.84c0-1.65-.07-3.28-.07-4.86a21.45,21.45,0,0,1,.69-6.11c.73-2.46,2.14-5,2.87-7.71a43.81,43.81,0,0,0,3.76-15.63l.17-.5c.07.55.13,1.09.2,1.63,0,0,0,.06,0,.09v.05a18.49,18.49,0,0,0,.41,3.61c1,11.14.81,22.13,1.34,33.51.3,6.37.34,12.6,0,18.95-.25,4.81.79,7.67,1.86,11.75,0,1.75,0,3.49,0,5.24,0,2.37.08,4.74.08,7.1a50.5,50.5,0,0,1-.43,7.21,41.25,41.25,0,0,0-.46,6A29.7,29.7,0,0,0,93,358.1c.35,1.94.74,3.86,1.13,5.79.48,6.6,2,12.33,4.27,19,.49,1.93,1,3.86,1.47,5.78a32,32,0,0,0,1.28,3.8,78.91,78.91,0,0,0,2.41,9.35c1.53,4.26,3.87,9.73,7.07,8,.2.4.42.79.6,1.2a.8.8,0,0,0,.63.45h.09a.81.81,0,0,0,.63-.31,13.41,13.41,0,0,0,.8-1.17,28.58,28.58,0,0,1,2.85,1.7,84,84,0,0,1,9,7.64,8.71,8.71,0,0,0,1.09.83c3.08,2.1,7.14,2.47,10.79,2.47,1,0,1.92,0,2.81-.06,3.34-.21,10.43-.22,12.58-4.41a8.46,8.46,0,0,0,.7-3.59,14.23,14.23,0,0,0-.15-1.95c-.17-.8-.32-1.6-.44-2.41l-.24-1s.06,0,.09,0c-.07-.52-.13-1-.19-1.56-.11,0-.21.06-.32.08l-.61-2a.8.8,0,0,0-.6-.55,7.08,7.08,0,0,1-1.63-.58,17,17,0,0,1-2.91-1.85c-1.25-.94-2.48-2-3.66-2.81s-2.58-1.44-3.65-2.23c-.26-.19-.89-.74-1.43-1.23l-.2-.18a13.46,13.46,0,0,0,.55-4.06h.06a264.76,264.76,0,0,0,.07-26.58,31.55,31.55,0,0,0-1.2-6.91c-.1-1.26-.2-2.52-.37-3.74-.75-5.32-4.77-9.46-5.36-14.2a51.63,51.63,0,0,1-.42-7c0-3.94.3-8,.49-11.79.26-5.12.16-9.72.66-14.36.23-1.21.45-2.41.64-3.6.09-.51.15-1,.22-1.53s.22-1,.36-1.52c1.81-6.74.92-13.62,2.34-20,1.56-7.2,1.28-14.32,2-21.37.42-4.3.93-8.61.93-13.06,0-.86,0-1.73-.06-2.59a28.81,28.81,0,0,0-.38-3.18c.07-.46.15-.92.22-1.38a37.68,37.68,0,0,0-.08-5.83l-.08-1.59h0a41.14,41.14,0,0,0,1.36-5.88l2.08-1.59a0,0,0,0,0,0,0l.2-.15a.79.79,0,0,0,.28-.53,59.64,59.64,0,0,0,4.83-4.25l1.57-1.59c.4-.41.78-.83,1.17-1.25l2.73-3.12c.24-.66.51-1.29.78-1.9l2.76-4.58.53-2.12c1.27-2.31,2.51-4.65,3.62-7.11.41-.9.76-1.79,1.12-2.68l.73-1.75c.44-1.12.83-2.24,1.23-3.36,1.26-3.58,2.39-7.18,3.64-10.86a101.19,101.19,0,0,0,3.17-10.5l.69-4.07a19,19,0,0,0-.11-4.9,30.38,30.38,0,0,1-.4-4.13l0-1c0-1.6.07-3.2.2-4.81ZM110.93,43.43c-1,1-3.36,1.39-4.92,1.64a7,7,0,0,1-1.32.14,3.2,3.2,0,0,1-3.15-1.82c0-.09,0-.09,0-.14s0-.12,0-.37a.77.77,0,0,0-.07-.39,4.79,4.79,0,0,0,4.31,1.94h.16A7.22,7.22,0,0,0,111,42.62C111,42.89,111,43.16,110.93,43.43Zm.36-5.4c0,.68-.07,1.4-.11,2.11-1.58,1.89-2.73,2.67-5.25,2.7h0c-2.1,0-2.79-.54-3.28-1.43a11.62,11.62,0,0,1-.7-4.14c3.14-.38,6.27-.78,9.3-.9C111.25,36.92,111.29,37.46,111.29,38ZM80.44,15.5l1.26-.61a22.68,22.68,0,0,1,3.69-1.28v.68c-.8.21-1.59.43-2.36.69a24.52,24.52,0,0,0-2.59,1ZM80.51,26A10.38,10.38,0,0,1,85,22.07l.38-.15h0q.78-.2,1.59-.36v-.17a38.78,38.78,0,0,1,9.46-1.28l.82,0a47.79,47.79,0,0,1,6.28.69c.8.16,1.52.33,2.11.51,3,4.41,4.82,8.5,5.41,13.32l-.08.09,0,0c-4.24.2-8.57.89-12.76,1.31-3.2.33-6.57.49-9.79,1-2.55.44-6.33.52-8.93,1.75a.69.69,0,0,0-.13.11l-.77-.16C79.37,35.18,79.38,29.8,80.51,26ZM97.25,40.19a11.25,11.25,0,0,1-.35,2.89.19.19,0,0,1,0,.07,2.69,2.69,0,0,1-1.7,1.35,9.83,9.83,0,0,1-2.7.6q-.35,0-.75,0a11.63,11.63,0,0,1-5-1.19c-1.52-.81-2.47-1.87-2.46-3.23a4,4,0,0,1,.33-1.49c1.41-.19,2.85-.33,4.09-.53,2.88-.48,6-.66,9-.94A8.66,8.66,0,0,0,97.25,40.19Zm.32,4.65a7.4,7.4,0,0,1-.13.9A17.68,17.68,0,0,1,90,47.39a14.94,14.94,0,0,1-2.43-.19c-2.14-.32-3.49-2-4.22-4.11,1.62,2.6,5.58,3.59,8.36,3.63.31,0,.61,0,.89,0C94,46.51,96.21,46.21,97.57,44.84ZM82.8,39.51l-.06.29c0-.09,0-.18,0-.28Zm-4-23.17v.48a13.12,13.12,0,0,0-5.2,5.05A10.75,10.75,0,0,1,78.85,16.34ZM77.9,31.72c-.05.45-.09.9-.14,1.34A40.55,40.55,0,0,1,77,38.58l-.26,0A30.09,30.09,0,0,1,77.9,31.72Zm-.83,23.7a1,1,0,0,0-.24,0,18.81,18.81,0,0,1-2-4.73.79.79,0,0,0-.93-.63.78.78,0,0,0-.63.92c0,.25.14.48.21.72a4.66,4.66,0,0,1-2.66-3l.07.09a2.57,2.57,0,0,0,1.84.65h0a5.33,5.33,0,0,0,.86-.07.79.79,0,0,0-.25-1.57,3.63,3.63,0,0,1-.61,0c-.93-.1-.79-.17-.89-.65a2.66,2.66,0,0,1,.54-1.44,1.45,1.45,0,0,1,.79-.64h0s.15,0,.38.61a.79.79,0,1,0,1.5-.51,2.1,2.1,0,0,0-1.89-1.69,2.92,2.92,0,0,0-2.05,1.24,8.44,8.44,0,0,1,.91-1.8,4.9,4.9,0,0,1,1.82-1.74,1.1,1.1,0,0,0,0,.18.76.76,0,0,0,.53.5.77.77,0,0,0,0,.26.81.81,0,0,0,.88.71,3.07,3.07,0,0,0,1.8-.87h.27a8.59,8.59,0,0,1,4.24.78h.05c.76,2.82,2.45,5.42,5.71,6A16.09,16.09,0,0,0,90,49a19.15,19.15,0,0,0,8.41-2c.08,0,.12-.13.18-.2A5,5,0,0,0,99,48.1c.64,1.38,1.72,2.08,2,2.89a2.09,2.09,0,0,1,.15.7c0,.37-.11.49-.48.7a3.66,3.66,0,0,1-1.62.3A6.53,6.53,0,0,1,97,52.4a.8.8,0,0,0-1,.47.81.81,0,0,0,.48,1,7.57,7.57,0,0,0,2.49.39,5.33,5.33,0,0,0,2.35-.48,2.31,2.31,0,0,0,1.34-2.11,3.6,3.6,0,0,0-.26-1.27c-.59-1.42-1.7-2.13-2-3a4.51,4.51,0,0,1-.29-1.84c0-.46,0-1,0-1.47a4.83,4.83,0,0,0,4.53,2.64,8.91,8.91,0,0,0,1.62-.17,17.45,17.45,0,0,0,4.46-1.21,77.1,77.1,0,0,1-1.58,12,26.07,26.07,0,0,0-2.49,6c0,.06,0,.11,0,.16l-.16.26a.76.76,0,0,0-.59,0,.78.78,0,0,0-.4,1,1.19,1.19,0,0,0,.08.16,13.39,13.39,0,0,1-10.4,5.09A14,14,0,0,1,89.6,69a31.31,31.31,0,0,1-7.37-5.55C79.6,61,77.52,58,77.6,56.7a1.58,1.58,0,0,1,0-.32A.79.79,0,0,0,77.07,55.42Zm-.89,15.77a.72.72,0,0,0,0-.52c.2-.47.4-1,.58-1.43A1,1,0,0,0,77,69a.8.8,0,0,0,.09-.6,27.35,27.35,0,0,0,1.39-6.7,39.1,39.1,0,0,0,2.66,2.9A32.26,32.26,0,0,0,89,70.49a15.5,15.5,0,0,0,6.24,1.33h0a14.92,14.92,0,0,0,11.22-5.2,22.66,22.66,0,0,0,1.7,2.35l.28.31c.23.46.42.83.52,1s.24.62.37.93a.79.79,0,0,0-.14.73.54.54,0,0,0,.1.16,8.7,8.7,0,0,1-1.17,2.7,26.53,26.53,0,0,1-4.31,3.89c-3.1,2.49-6.39,4.5-10.28,4.64H92.45c-6.35,0-12.31-2.11-16-6.75a15.91,15.91,0,0,1-1.3-1.9c-.2-.36-.39-.75-.58-1.14a.24.24,0,0,0,.08-.06l0,0h0l0,0c.1-.1.32,0,1.12-.48a.79.79,0,0,0,.26-1.09.77.77,0,0,0-.33-.29A.73.73,0,0,0,76.18,71.19ZM73.86,68.6a3.36,3.36,0,0,1,1.34.34c-.12.31-.23.63-.36.93a7.22,7.22,0,0,0-1.9-.28h0a.78.78,0,0,0-.48,0,.86.86,0,0,0-.29.14h0A2,2,0,0,1,73.86,68.6Zm.3,2.71c-.09.17-.19.32-.28.48,0-.08,0-.17-.08-.25a.43.43,0,0,0,0-.05,2.17,2.17,0,0,1-.07-.24ZM71,72.73a13.83,13.83,0,0,1,.38-1.39,6.17,6.17,0,0,1,.74-.07A17.41,17.41,0,0,0,80.42,82a24.24,24.24,0,0,0,11.94,3h.09c.38,0,.75,0,1.11,0,4.44-.16,8-2.43,11.22-5a34.15,34.15,0,0,0,3.94-3.45c.21-.22.42-.44.62-.69a7.68,7.68,0,0,0,.94-1.76h.06a22.49,22.49,0,0,1,.62,2.25,29.84,29.84,0,0,0,2.5,6.44,38,38,0,0,0,2.23,6.45c1,3.8,2,7.55,3.25,11.43,1.52,4.67,1.4,8.08.7,12.81-.65,4.43-.62,8.69-1.29,13.08-.38,2.54-1.13,5.06-1.68,7.62a12.29,12.29,0,0,0-1.61,5.25c-1.43,0-2.86,0-4.26-.07a4.14,4.14,0,0,0-.11-1l-.23-.37c-3.13-2.88-4-5.12-8.78-6.7a14.83,14.83,0,0,0-4.5-.93,4.92,4.92,0,0,0-3.9,1.8c-1,1.07-1.87,2.44-3.33,4.07-1.19,1.35-1.51,2-1.62,2.07a9.35,9.35,0,0,1-2.51.54,3.66,3.66,0,0,1-.57.05,11.48,11.48,0,0,1-2.36-.43c-1.63-4.94-1.22-12.88-2.55-18.58a125.27,125.27,0,0,0-5.56-18.22c-2.52-6.26-4.47-10.81-4.47-17.72v-.08h0c0-.69,0-1.64,0-2.76A41.74,41.74,0,0,1,71,72.73Zm42.54,2.84c.79,2,1.51,3.88,2.11,5.3-.54-1.15-1.06-2.31-1.52-3.5C113.94,77,113.74,76.35,113.5,75.57ZM117.61,85c2.83,5.39,6.51,11.51,7.55,16.58a33.17,33.17,0,0,1,.6,6.6c0,.42,0,.85,0,1.28-.56-2.43-1.3-4.83-1.64-7.29-.6-4.36-2.49-7.87-4.11-12C119.28,88.4,118.45,86.69,117.61,85Zm2.09,70.4c0,3.79-.16,7.7-.23,11.6-.29.08-.59.12-.88.19a48.4,48.4,0,0,1-10.44,1c-6.3,0-12.93-.69-18.75-.69-1.3,0-2.84.11-4.38.14,0-5.45-.14-10.92-.14-16.37,0-3.36.05-6.73.2-10.06a1.21,1.21,0,0,1,0-.19c.29,0,.6,0,.9-.07s.44,0,.64,0a3.14,3.14,0,0,1,.86.08.81.81,0,0,0,1-.58.78.78,0,0,0,0-.43,2.45,2.45,0,0,0,.92-.44c.63-.57.65-1,1.8-2.23,1.39-1.56,2.28-2.86,3.06-3.76l.24-.29a3.34,3.34,0,0,1,2.74-1.3,13.58,13.58,0,0,1,4,.86c4.21,1.41,4.77,3.13,8,6.18a3.88,3.88,0,0,0,.17,1.43.83.83,0,0,0,.7.5c1.71.08,3.43.1,5.14.1h1.07c0,.15-.07.31-.08.46a.79.79,0,0,0,.72.86H117a.79.79,0,0,0,.79-.72c0-.2.08-.41.11-.61h.59a.8.8,0,0,0-.06.53A60.39,60.39,0,0,1,119.7,155.38ZM83.43,167.61c-2.58-.07-4.73-.61-5.37-2a6.22,6.22,0,0,1-.41-2.64c0-3.23.95-7.83,1.07-10.16,0-1.06.1-3.88.31-6.61a31.59,31.59,0,0,1,.43-3.59,5.34,5.34,0,0,1,.61-2,1.92,1.92,0,0,1,1.53-.71h.1c0,.08,0,.18.09.27a.79.79,0,0,0,.73.48.72.72,0,0,0,.29-.06h0a.39.39,0,0,0,.1-.08.68.68,0,0,0,.3-.33l.3.07h0c0,.14,0,.27,0,.41a.45.45,0,0,0,0,.11,1.48,1.48,0,0,1,0,.21c-.15,3.42-.21,6.85-.21,10.28C83.29,156.7,83.4,162.17,83.43,167.61ZM38.12,229.74h0c0-.08,0-.16,0-.25a25.11,25.11,0,0,1,1.63-8.18l0,.06c1,1.18,2,2.37,2.93,3.54s2.13,2.59,3.19,3.9l-.33,0-.13,0a7.92,7.92,0,0,0-1.56-.22h-.13a.77.77,0,0,0-.69.64,25.46,25.46,0,0,1-4.46.49Zm1.39,2v-.07a.8.8,0,0,0-.11-.38,59.3,59.3,0,0,0,6.09-.82l.42.13.24.08h-.66C43.46,231,41.47,231.36,39.51,231.73ZM33,396.38c0-.42.08-.82.1-1.23.08,2.89.17,5.78.32,8.69h.15l0-.13c3.89-1.58,11.78-1.83,16.37-.53.4.12.77.26,1.14.39a1.2,1.2,0,0,0-.24.15l-.29.31a71.22,71.22,0,0,0-9.26-.72c-3,0-5.92.31-8,1.35-.19.1-.41.16-.58.26,0-.35,0-.71,0-1.07C32.7,401.37,32.89,398.84,33,396.38Zm15.68-164.6a.74.74,0,0,0,.28-.08,20.2,20.2,0,0,0,2.2.73c3.21.79,6.49,1.59,9.74,2.21l.3,0c-2.18-.17-4.23-.47-5.36-.58A15.44,15.44,0,0,1,48.69,231.78Zm4.59,172.69c-.12,0-.25-.08-.37-.1l-.69-.1a.8.8,0,0,0-.09-.31C52.52,404.12,52.9,404.29,53.28,404.47ZM33.9,413l-.19,0a43.42,43.42,0,0,1,2.7-3.51.86.86,0,0,0,.18.2c1.66,1,5.19,4.2,5.33,5.93C39.75,415.43,36.87,413.06,33.9,413Zm8,4.19a3.9,3.9,0,0,1-3.27,1.6c-1.75,0-4-.85-6.47-1.33v-.13a5.9,5.9,0,0,1,.54-2.45,2.51,2.51,0,0,1,1.21-.29C36,414.49,38.91,416.88,41.89,417.17Zm-2.83-7.62c1.18-.11,2.58-.18,4-.18,1.13,0,2.27,0,3.35.14-1.08,1.77-2.06,3.61-3.08,5.38C42.77,412.82,40.75,410.89,39.06,409.55Zm4-1.77a38.3,38.3,0,0,0-5.58.38,25.93,25.93,0,0,0,1.61-2.23h.06a.8.8,0,0,0,.91-.66.82.82,0,0,0,0-.35l1.3,0a68.44,68.44,0,0,1,7.94.55A29.19,29.19,0,0,0,47.37,408,40,40,0,0,0,43.07,407.78Zm-15.68,14c.33-1.08,1.91-4.46,3.37-7.72s2.85-6.36,2.91-7.79v-.06a11.81,11.81,0,0,1,4.08-1.11c-2.07,3.44-7.09,7.24-7.18,12.2a7.22,7.22,0,0,0,.06.92.8.8,0,0,0,.66.67c2.52.38,4.93,1.44,7.33,1.46h.11a5.84,5.84,0,0,0,5.12-3.2c1.5-2.48,2.82-5.07,4.31-7.44a12.13,12.13,0,0,1,1.89.43.79.79,0,1,0,.51-1.5,11.19,11.19,0,0,0-1.44-.37,21.36,21.36,0,0,1,2.06-2.56l1.48.22c2.36.31,7.25,3.55,11,3.9a.13.13,0,0,1,0,.06.87.87,0,0,0,.14.27,4.1,4.1,0,0,1,.6,1.58c-1.47,2-4.79,2.5-7.49,4.14A8.19,8.19,0,0,0,55.37,417c-1.69,1.8-2.33,4.25-3.21,6.21a6.28,6.28,0,0,1-1.77,2.49,3.6,3.6,0,0,1-1.62.71,9.34,9.34,0,0,1-1.81.13h-.59a14.62,14.62,0,0,0-1.83.1,49.21,49.21,0,0,1-6.92.87h-.77a22.58,22.58,0,0,1-5.74-.82c-1.64-.56-2.71-1.37-3-2.75a4.11,4.11,0,0,1-.13-.53l0-.2c-.14-.15,0-.5-.72-.73Q27.29,422.12,27.39,421.79Zm34.1-14.05a12.8,12.8,0,0,0,2.74.14c0,.16,0,.29.06.43h-.07A8.27,8.27,0,0,1,61.49,407.74ZM64,416.62a1.77,1.77,0,0,1-1.65,1.1l-.34,0a.8.8,0,0,0-.84.51c-.77,2.24-3.3,3.85-4.74,6.41s-1.91,5.11-3.35,7.3c-2.74,4.17-6,3.86-11.29,4.36-1.84.17-4.56.54-7.21.54a15.9,15.9,0,0,1-4.66-.58,4.79,4.79,0,0,1-2.48-1.54,5,5,0,0,1-.66-1.39,12.38,12.38,0,0,1-.55-3.91,27.21,27.21,0,0,1,.41-4.47,5.87,5.87,0,0,0,4,3.3,23.93,23.93,0,0,0,6.15.89c.29,0,.57,0,.85,0a51.61,51.61,0,0,0,7.14-.88,10.57,10.57,0,0,1,1.61-.09H47A6.59,6.59,0,0,0,51.37,427c3-2.48,3.05-6.86,5.13-8.83,1.75-1.9,5.51-2.24,8.11-4.38A6.29,6.29,0,0,1,64,416.62Zm7.81-75.82c0,9.31-1.11,18.31-2.24,27.52-.92,7.55-.44,15.19-1.14,22.56-.32,3.39-.52,6.66-1.12,9.9-.28,1.72-.67,5.91-1.34,6.76a1.76,1.76,0,0,1-.91.64C68.3,403.31,67.92,388,68.36,383c.89-10.18,1.19-20.62,2.12-30.87.49-5.45.88-10.81,1.4-16.11C71.85,337.62,71.83,339.2,71.83,340.8ZM69.38,227.45c-.61-1-1.26-1.89-1.74-2.69a3.85,3.85,0,0,1-.67-2,.92.92,0,0,1,0-.16,36.18,36.18,0,0,0,4.12,2.77.33.33,0,0,0-.06.1.78.78,0,0,0,.18.84A8.57,8.57,0,0,0,73,227.54Zm-2.51-6.82a.79.79,0,0,0-.67-.08.8.8,0,0,0-.48.47,4.76,4.76,0,0,0-.33,1.72c0,2.38,1.74,3.88,2.66,5.57.72,1.26,1.21,2.75,1.93,4.23a1.88,1.88,0,0,1-.12.3,12.31,12.31,0,0,1-4.25.69,24.58,24.58,0,0,1-4.4-.45c-3.2-.61-6.45-1.4-9.65-2.19a19.78,19.78,0,0,1-2.32-.78,8.57,8.57,0,0,0-.14-.91.8.8,0,0,0-1-.57l-.14,0-.21,0c-4.26-5.36-8.78-10.25-12.67-15.87-3.79-5.46-6.57-11.11-9.86-17-2.82-5.05-6.95-12.23-6.95-17.72-.05-7-2.71-13.3-4.26-19.73A45.93,45.93,0,0,1,13,147.72a64.52,64.52,0,0,1,1.19-12.25c.07-.35.14-.7.22-1l0-.12h0l.33.11a14.1,14.1,0,0,1,2.14.75l.28.12A61.91,61.91,0,0,1,24.45,139c3.45,2.18,7.07,4.82,10.8,7a4.43,4.43,0,0,0-.51-.06,6,6,0,0,0-1.27.14l-.07,0-.15.07-.12.08-.11.11a.83.83,0,0,0-.08.12l-.06.14,0,.16s0,.05,0,.07,0,.05,0,.08,0,.06,0,.09,0,0,0,.06a.52.52,0,0,0,.07.15l.08.12a.57.57,0,0,0,.11.11l.12.08.14.06.16,0h.64a.75.75,0,0,0,.36-.1l.18,0a3.75,3.75,0,0,1,.82.09,26.35,26.35,0,0,0-1.44,8.94,37.8,37.8,0,0,0,.25,4.12,50.61,50.61,0,0,0,1,5.95l.39,1.59c.22.86.44,1.72.69,2.54a21.14,21.14,0,0,1,.81,4.81c.12,1.62.15,3.29.37,5.21,0,.24.09.47.12.7a9.55,9.55,0,0,0-.66,1.93.77.77,0,0,0,.13.62.82.82,0,0,0,.56.33h.25a1.36,1.36,0,0,0,.35-.07c.52,1.8,1.19,3.56,1.85,5.24.88,2.27,1.78,4.64,2.74,7,0,0,0,.07,0,.11a82.91,82.91,0,0,0,3.54,7.67c3.11,5.79,8.11,6.16,13.69,7.26,4.12.84,6,2.82,8.64,6.09a27.47,27.47,0,0,0,4.17,4.72,14.25,14.25,0,0,0,2.23,1.21,2.42,2.42,0,0,1,.56.43.93.93,0,0,1,.18.45,5,5,0,0,1-.64.07,7.47,7.47,0,0,1-.78.09C71.79,224.68,69.92,222.53,66.87,220.63Zm-31.16-64a24.12,24.12,0,0,1,1.63-9.14.86.86,0,0,0,0-.23A35,35,0,0,0,41.31,149c0,5.4-.14,11.81-.38,17.67l-.08,1.59c0,.3,0,.62,0,.92-.12,2.57,0,5.26-.64,7.43A12.89,12.89,0,0,1,39.08,179c-.21-2.91-.14-5.51-1.09-8.68-.2-.67-.38-1.38-.57-2.08L37,166.66A44.55,44.55,0,0,1,35.71,156.59Zm44,142.32c-.09.3-.18.6-.28.9a61.19,61.19,0,0,0,.75-7.08c.07-1.37.13-2.54.2-3.63,0,1.15.05,2.29.05,3.42A22.63,22.63,0,0,1,79.71,298.91Zm14.42,54.85c0-.32,0-.64,0-.95a41,41,0,0,1,.4-5.38C94.38,349.57,94.25,351.68,94.13,353.76ZM107.93,223C102,225.26,95,227.39,88.78,227.7c-3.44.17-6.91.11-10.38,0a15.9,15.9,0,0,1-4.71-1.55,9.19,9.19,0,0,0,.93.08,8.71,8.71,0,0,0,2.42-.36.8.8,0,0,0,.57-.67,4.38,4.38,0,0,0,0-.51,2.72,2.72,0,0,0-1.57-2.48,16.34,16.34,0,0,1-2-1.07,27,27,0,0,1-3.9-4.46,31.92,31.92,0,0,0-2.54-2.9,13,13,0,0,0-7-3.75c-1.66-.34-3.17-.6-4.56-.91-3-.69-5.35-1.65-7.19-4.21a12.32,12.32,0,0,1-.85-1.34A133.42,133.42,0,0,1,41.73,189c-.41-1-.8-2.09-1.17-3.14l-.92-3c-.09-.37-.15-.74-.21-1.11a32.91,32.91,0,0,0,2.25-4.68c.8-2.58.59-5.39.72-7.84,0-.32,0-.66.05-1l.07-1.59c.24-5.83.36-12.18.38-17.56a.92.92,0,0,0,.21-.34,127.75,127.75,0,0,0,2.6-14.11c.72-4.54,4-10.39,7.16-13.78a.81.81,0,0,0,0-1.13.8.8,0,0,0-1.12.05c-3.36,3.66-6.73,9.59-7.55,14.6-.67,4.1-1.21,8.36-2.16,12.3a.78.78,0,0,0-.65.62c-5.38-2.17-10.83-6.33-16-9.63a64.58,64.58,0,0,0-7.72-4c-.86-.38-2-.71-3-1a.81.81,0,0,0-.51-.41.8.8,0,0,0-.53.07,7.38,7.38,0,0,1-2.27-1.1,1.69,1.69,0,0,1-.65-1.42c0-1,.57-2.4.67-4.09v-.39c0-.56,0-1.09,0-1.58a3.41,3.41,0,0,1,.23-1.41c.59-1.52,3-2.62,4.06-5.12.55-1.49.41-3,.83-3.94.62-1.59,2.15-2.77,3-4.9.67-1.84.61-3.7,1.41-4.87,1.32-2.13,4.58-3.39,6.85-5.62a97.11,97.11,0,0,1,7.34-7.12A83.7,83.7,0,0,1,47.6,82.29c3.66-2.05,7.82-3.22,11.74-5.11,1.5-.74,3.3-1.85,5.19-2.92a22.19,22.19,0,0,0,.63,5.92,79.06,79.06,0,0,0,2.71,15.26c.16.86.33,1.72.54,2.59a34.65,34.65,0,0,0,1.43,4.24c3.59,12.28,5.9,24.76,9.08,37.19h0c-1,1.23-1.2,3.77-1.48,6.6q-.08,1-.12,1.89c-.12,2.09-.16,4-.2,4.76-.06,1.27-.44,3.52-.73,5.87-.15,1.16-.26,2.34-.31,3.44,0,.32,0,.63,0,.93a8.14,8.14,0,0,0,.51,3.18c0,.06,0,.13.07.19,1.29,2.35,4.07,2.77,6.8,2.85,0,.07,0,.14,0,.21a.79.79,0,0,0,.79.79.79.79,0,0,0,.8-.79c0-.07,0-.14,0-.21,1.6,0,3.15-.14,4.37-.14,5.71,0,12.34.69,18.75.69a54.46,54.46,0,0,0,9.14-.68l.73-.14c.83-.16,1.65-.34,2.45-.56a.79.79,0,0,0,.58-.75c.07-4.08.24-8.2.24-12.23A62.12,62.12,0,0,0,120,141.14a.87.87,0,0,0-.07-.17h.44a.79.79,0,0,0,.79-.79.79.79,0,0,0-.79-.8h-2.18c1.3-5.29,5.3-11.21,7.07-16.71a50.21,50.21,0,0,0,2-11.94v-4.28a33.14,33.14,0,0,0-.55-5.23c-1.37-6.49-6.4-14-9.15-19.84-.88-1.85-2.31-5.84-3.84-9.51l0,0c.5,0,1-.09,1.51-.09a32.13,32.13,0,0,1,8.49,1.29l1.59.49c.88.29,1.75.59,2.61.92l3.67,1.59a36.39,36.39,0,0,1,5.29,3.09c6.16,4.42,13.39,9.86,18.07,15.8l.41.49.05.07.1.14h0c.38.52.74,1.06,1.1,1.59h.08c1.7,2.3,3.37,4.66,4.85,7.08.15.22.26.45.39.68h-.8c.26.52.52,1.05.76,1.58h.81a27.85,27.85,0,0,1,1.39,5h-.24l.57,1.53c.07.32.13.63.21,1l-3.14,2.41a64,64,0,0,0-6.9,5.25c-4.53,4.18-9.16,9.25-14.07,12.34l-1.21,2c1,5.29,2.23,11.52,3.51,17.21l.35,1.55c.08.33.15.66.23,1,.56,2.39.86,5.19,2.1,7.59a33.77,33.77,0,0,0,3.05,4.2c0,.38,0,.75,0,1.13l-.37,3.11c-.17,1.1-.38,2.2-.59,3.3A132.71,132.71,0,0,1,144,190.56a13.24,13.24,0,0,1-.6,1.47c-1.35,2.85-3.51,4.22-6.33,5.43-1.3.55-2.74,1.08-4.32,1.7l-2.8.89c-5.65,2.3-9.18,8-13.26,11.52a.77.77,0,0,0-.24.77,3.23,3.23,0,0,0,3.27,2.86,7.79,7.79,0,0,0,2.16-.45c-2.77,1.59-5.36,3.56-8.06,5.27A45.22,45.22,0,0,0,107.93,223Zm40.46-58.17a12.42,12.42,0,0,1-1.5-2.17c-1.07-2-1.39-4.69-2-7.2-.06-.3-.13-.6-.2-.9l-.35-1.55c-1.29-5.72-2.55-12-3.53-17.32a36.63,36.63,0,0,0,3.54-2.44.68.68,0,0,0,.09.22,24.09,24.09,0,0,1,3.23,8.7,44.65,44.65,0,0,1,.52,10.14l-.12,1.64c-.06.72-.11,1.45-.19,2.15C147.54,159.36,148.07,161.91,148.39,164.8ZM151,410.35a17.42,17.42,0,0,1,.62,4.27,8,8,0,0,1-.27,2,7.31,7.31,0,0,1-.28.9,2.89,2.89,0,0,1-.65.94c-2.06,2-7.64,2.53-10.55,2.56-.88,0-1.81,0-2.75,0-4,0-8.22-.51-10.82-2.89-3.82-3.45-7.32-7-12.14-9.53.25-.47.49-.94.72-1.42a32.72,32.72,0,0,0,10.9,6.92c3.81,1.41,6.9,1.18,10.69,1.38,1.51.07,3,.24,4.56.24a11.09,11.09,0,0,0,6.07-1.54,21,21,0,0,0,3-3A10.26,10.26,0,0,1,151,410.35Zm-13-11.26c1.27.92,2.64,1.52,3.69,2.26,2.33,1.58,5.06,4.47,8.32,5.37.06.18.12.4.18.6.13.42.26.84.39,1.3-.51.44-1,1-1.55,1.54a21.57,21.57,0,0,1-2.72,2.74,9.5,9.5,0,0,1-5.23,1.3c-1.41,0-2.91-.16-4.48-.24-3.92-.19-6.75,0-10.22-1.28A31,31,0,0,1,115.85,406a.78.78,0,0,0-.32-.18c.36-.78.72-1.56,1.1-2.33a16.88,16.88,0,0,1,3.06-4.48c.89,1.62,3.16,2.69,5.55,3.9,1.12.52,2.29,1,3.38,1.45,0,.16,0,.32,0,.49a11.48,11.48,0,0,0,.11,1.53.79.79,0,0,0,.49.63.8.8,0,0,0,.8-.12c.54-.45,1.12-.9,1.73-1.34l1.09.42c1,.39,2.36,1.06,3.85,1.53,0,.21-.06.43-.1.64a.79.79,0,0,0,.65.91h.14a.78.78,0,0,0,.78-.66c0-.18,0-.35.08-.52a9,9,0,0,0,1.35.14h0a4.1,4.1,0,0,0,3.35-1.53.81.81,0,0,0-.12-1.11c-1-.8-2.18-1.89-3.48-3.07a10.71,10.71,0,0,1,.38-1,.8.8,0,0,0-.12-.84.77.77,0,0,0-.8-.26c-.45.12-.9.3-1.35.46a45.35,45.35,0,0,0-4.85-3.79l.12-.22a9,9,0,0,0,2.89.59l.15,0C136.32,397.69,137.42,398.71,137.93,399.09Zm-6.42,4.68-1.22-.47a18,18,0,0,1,1.59-5,49,49,0,0,1,3.91,3A27.85,27.85,0,0,0,131.51,403.77Zm5.61-1.32.4.35a27,27,0,0,0-.62,3.1c-1.27-.42-2.54-1-3.49-1.4l-.1,0A25.3,25.3,0,0,1,137.12,402.45Zm-8.35.25c-.94-.38-1.92-.8-2.86-1.23-.42-.18-.82-.37-1.21-.57.8-1.23,3.42-2.81,5.54-3.64l.3.17A19.72,19.72,0,0,0,128.77,402.7Zm-5.42-2.56c-1.53-.94-2.54-1.87-2.46-2.25a10.48,10.48,0,0,1,5.21-2.63.78.78,0,0,0,.73.8,5.17,5.17,0,0,1,1.46.31A12.33,12.33,0,0,0,123.35,400.14Zm15.09,6.17c.12-.79.26-1.56.43-2.31l2.27,2a2.89,2.89,0,0,1-1.59.4A6.47,6.47,0,0,1,138.44,406.31Zm-4.77-13.68c.85-.1,1.69-.14,2.54-.19a14.14,14.14,0,0,1-.3,2.8c0,.07,0,.15,0,.22h-.05a.86.86,0,0,0-.26.05.43.43,0,0,0-.21.11c-1.74-.08-3.58-1.24-5.74-1.75a10.51,10.51,0,0,0-2.37-.27c-3.26,0-5.86,1.63-8.33,3.93a18.46,18.46,0,0,0-3.72,5.29c-.91,1.82-1.64,3.64-2.51,5.24a.78.78,0,0,0-.64.44.43.43,0,0,0,0,.14l-.31-.11-.42-.78,1.63-2.23c-.45-6,11.59-14.13,16.85-14.1A6,6,0,0,1,133.67,392.63Zm-4.62-56.58c-.06-.36-.12-.72-.17-1.08a55.41,55.41,0,0,1,.72-15.88c0,1-.06,2-.11,3-.2,3.79-.5,7.85-.5,11.87C129,334.62,129,335.33,129.05,336.05Zm6.63-76.51c-.65,6.74-.48,13.35-1.69,19.86.47-6,1.22-12,1-18-.2-4.84.69-9.47,1.63-14.15C136.55,251.35,136.09,255.42,135.68,259.54ZM169.31,140c-.38,6.6-1.88,13.25-.68,20.18,1,5.4-1.8,13.2-3.68,18.67-2.18,6.41-3.91,12.45-6.66,18.51-2.83,6.21-6.4,11.84-9.63,17.87l-.22,0-.13,0,.3,0a62.09,62.09,0,0,1-7,6.7c-.35.28-.67.57-1,.84a.78.78,0,0,0-.34.17c-.35.31-.83.65-1.19,1a.78.78,0,0,0-.16.21,4.5,4.5,0,0,1-.58.21l-.92,0a10,10,0,0,1-1.35.42c-.22,0-.43,0-.64,0a18.46,18.46,0,0,1-8.07-2.32c-2.62-1.56-4-2.39-3.61-4.3,3.64-1.91,7.84-4,9.74-8.19a.8.8,0,0,0,0-.69.76.76,0,0,0-.53-.41,3.19,3.19,0,0,0-.75-.08c-3.84.11-9.6,4.92-12.47,4.81a1.48,1.48,0,0,1-1.59-1.21c4.12-3.79,7.56-9,12.41-10.88l2.79-.89c5.3-2.08,10.15-3.34,12.18-9.59a78.89,78.89,0,0,0,2.11-8.18l0-.11c.52-2.48,1-5,1.45-7.36.34-1.76.69-3.62.88-5.48a2.16,2.16,0,0,0,.36,0h0l.23-.06a.79.79,0,0,0,.51-1.06,9.56,9.56,0,0,0-1-1.77c0-.24,0-.48,0-.71-.13-1.93-.39-3.58-.57-5.19a22,22,0,0,1,0-4.88c.09-.86.16-1.74.23-2.63l.09-1.63a50.6,50.6,0,0,0-.05-6,37.31,37.31,0,0,0-.5-4.1,25.89,25.89,0,0,0-3-8.54l0-1.66c3.28-2.82,6.37-6.06,9.38-8.82a60.5,60.5,0,0,1,6.48-5l.25-.17a15.33,15.33,0,0,1,2-1.12l.31-.16,0,0,.05.12c.13.32.27.65.4,1a64.1,64.1,0,0,1,3.36,11.84A46,46,0,0,1,169.31,140Zm-43,72.83c1.08-.56,2.12-1.11,3.07-1.55h.21a1.13,1.13,0,0,1,.1-.13,9.53,9.53,0,0,1,1.82-.64c-1.41,2.24-3.81,3.81-6.35,5.21.37-.42.81-.85,1.29-1.3,0-1,.15-1.73.73-1.89C126.83,212.56,126.55,212.69,126.26,212.78Z" transform="translate(-9.05 -11.18)"/>
  </g>
</svg>
